<svg xmlns="http://www.w3.org/2000/svg" viewBox="0 0 48 48"><defs><style>.cls-1{fill:#fc6;}.cls-2{fill:#ffde76;}.cls-3{fill:#dad7e5;}.cls-4{fill:#edebf2;}.cls-5{fill:#9fdbf3;}.cls-6{fill:#b2e5fb;}.cls-7{fill:#8bd1ea;}</style></defs><title>49. Sea - Ocean</title><g id="_49._Sea_Ocean" data-name="49. Sea / Ocean"><path class="cls-1" d="M39,10a3,3,0,1,1-3.87-2.87A3,3,0,0,1,39,10Z"/><path class="cls-2" d="M38.87,10.87a3,3,0,0,1-3.74-3.74A3,3,0,0,1,38.87,10.87Z"/><path class="cls-2" d="M36,4c-1.2,0-1-1.17-1-3a1,1,0,0,1,2,0C37,2.85,37.2,4,36,4Z"/><path class="cls-2" d="M28.93,4.34a1,1,0,0,1,1.41-1.41c1.31,1.3,2.27,2,1.42,2.83S29.8,5.21,28.93,4.34Z"/><path class="cls-2" d="M29,11c-1.85,0-3,.2-3-1s1.17-1,3-1A1,1,0,0,1,29,11Z"/><path class="cls-2" d="M28.93,15.66c1.3-1.31,2-2.27,2.83-1.42s-.12,1.54-1.42,2.83A1,1,0,0,1,28.93,15.66Z"/><path class="cls-2" d="M36,20c-1.2,0-1-1.17-1-3a1,1,0,0,1,2,0C37,18.85,37.2,20,36,20Z"/><path class="cls-2" d="M40.24,15.66a1,1,0,0,1,1.42-1.42c1.3,1.31,2.26,2,1.41,2.83S41.11,16.52,40.24,15.66Z"/><path class="cls-2" d="M45,11c-1.85,0-3,.2-3-1s1.17-1,3-1A1,1,0,0,1,45,11Z"/><path class="cls-2" d="M40.24,4.34c1.31-1.3,2-2.26,2.83-1.41S43,4.46,41.66,5.76A1,1,0,0,1,40.24,4.34Z"/><path class="cls-3" d="M21,17.45c-1.35.8-1.31.55-15,.55-4,0-4-6,0-6,.16,0,0-.1,0-1a6,6,0,0,1,11.93-.85C22.36,8.85,25.07,15.11,21,17.45Z"/><path class="cls-4" d="M21,17.45c-1.35.8-1.31.55-15,.55a1,1,0,0,1-.24,0c-2.07-2.34.59-5.55,2.33-5C6.9,6.45,16.88,2.53,17.93,10.15,22.36,8.85,25.07,15.12,21,17.45Z"/><path class="cls-5" d="M47,28V47c-2.87,0-2.87-2-5.75-2s-2.87,2-5.75,2-2.87-2-5.74-2S26.88,47,24,47s-2.88-2-5.75-2-2.87,2-5.75,2-2.88-2-5.75-2S3.88,47,1,47V28c2.87,0,2.89-2,5.76-2s2.87,2,5.75,2,2.88-2,5.75-2,2.87,2,5.75,2,2.87-2,5.75-2,2.87,2,5.74,2,2.88-2,5.75-2S44.13,28,47,28Z"/><path class="cls-6" d="M47,28V44.9c-1.92-.39-2.25-1.9-4.75-1.9-2.87,0-2.87,2-5.75,2s-2.87-2-5.74-2S27.88,45,25,45s-2.88-2-5.75-2-2.87,2-5.75,2-2.88-2-5.75-2A3.59,3.59,0,0,1,4,39.45V26.92A4.33,4.33,0,0,1,6.76,26c2.87,0,2.87,2,5.75,2s2.88-2,5.75-2,2.87,2,5.75,2,2.87-2,5.75-2,2.87,2,5.74,2,2.88-2,5.75-2S44.13,28,47,28Z"/><path class="cls-7" d="M3.29,31.29a1,1,0,0,1,1.42,0,1.81,1.81,0,0,0,2.58,0,1,1,0,0,1,1.42,1.42C6.13,35.28,1.81,32.77,3.29,31.29Z"/><path class="cls-7" d="M15.29,31.29a1,1,0,0,1,1.42,0,1.81,1.81,0,0,0,2.58,0,1,1,0,0,1,1.42,1.42C18.13,35.28,13.81,32.77,15.29,31.29Z"/><path class="cls-7" d="M27.29,31.29a1,1,0,0,1,1.42,0,1.81,1.81,0,0,0,2.58,0,1,1,0,0,1,1.42,1.42C30.13,35.28,25.81,32.77,27.29,31.29Z"/><path class="cls-7" d="M39.29,31.29a1,1,0,0,1,1.42,0,1.81,1.81,0,0,0,2.58,0,1,1,0,0,1,1.42,1.42C42.13,35.28,37.81,32.77,39.29,31.29Z"/><path class="cls-7" d="M3.29,39.29a1,1,0,0,1,1.42,0,1.81,1.81,0,0,0,2.58,0,1,1,0,0,1,1.42,1.42C6.13,43.28,1.81,40.77,3.29,39.29Z"/><path class="cls-7" d="M15.29,39.29a1,1,0,0,1,1.42,0,1.81,1.81,0,0,0,2.58,0,1,1,0,0,1,1.42,1.42C18.13,43.28,13.81,40.77,15.29,39.29Z"/><path class="cls-7" d="M27.29,39.29a1,1,0,0,1,1.42,0,1.81,1.81,0,0,0,2.58,0,1,1,0,0,1,1.42,1.42C30.13,43.28,25.81,40.77,27.29,39.29Z"/><path class="cls-7" d="M39.29,39.29a1,1,0,0,1,1.42,0,1.81,1.81,0,0,0,2.58,0,1,1,0,0,1,1.42,1.42C42.13,43.28,37.81,40.77,39.29,39.29Z"/><path class="cls-7" d="M9.29,35.29a1,1,0,0,1,1.42,0,1.81,1.81,0,0,0,2.58,0,1,1,0,0,1,1.42,1.42C12.13,39.28,7.81,36.77,9.29,35.29Z"/><path class="cls-7" d="M21.29,35.29a1,1,0,0,1,1.42,0,1.81,1.81,0,0,0,2.58,0,1,1,0,0,1,1.42,1.42C24.13,39.28,19.81,36.77,21.29,35.29Z"/><path class="cls-7" d="M33.29,35.29a1,1,0,0,1,1.42,0,1.81,1.81,0,0,0,2.58,0,1,1,0,0,1,1.42,1.42C36.13,39.28,31.81,36.77,33.29,35.29Z"/></g></svg>