<?xml version="1.0" encoding="UTF-8"?>
<!DOCTYPE svg PUBLIC "-//W3C//DTD SVG 1.1//EN" "http://www.w3.org/Graphics/SVG/1.1/DTD/svg11.dtd">
<!-- Creator: CorelDRAW -->
<svg xmlns="http://www.w3.org/2000/svg" xml:space="preserve" width="2048px" height="2048px" style="shape-rendering:geometricPrecision; text-rendering:geometricPrecision; image-rendering:optimizeQuality; fill-rule:evenodd; clip-rule:evenodd"
viewBox="0 0 2048 2048"
 xmlns:xlink="http://www.w3.org/1999/xlink">
 <defs>
  <style type="text/css">
   <![CDATA[
    .fil9 {fill:none}
    .fil2 {fill:#444444}
    .fil1 {fill:#565656}
    .fil5 {fill:#5E5E5E}
    .fil0 {fill:#686868}
    .fil3 {fill:#8E8E8F}
    .fil6 {fill:#959595}
    .fil7 {fill:#9F9F9F}
    .fil8 {fill:darkgray}
    .fil4 {fill:darkgray;fill-rule:nonzero}
   ]]>
  </style>
 </defs>
 <g id="Layer_x0020_1">
  <metadata id="CorelCorpID_0Corel-Layer"/>
  <g id="_316814792">
   <g>
    <path id="_316798928" class="fil0" d="M1345.05 338.387c0,0 187.112,-127.867 241.598,72.0886 200.411,-52.7918 183.229,173.186 183.229,173.186 -58.6607,-213.838 -231.664,-89.2961 -231.664,-89.2961 0,0 21.3555,-212.095 -193.164,-155.979z"/>
    <polygon id="_316799456" class="fil0" points="1589.17,523.785 1487.26,464.948 1567.64,443.412 "/>
   </g>
   <g>
    <path id="_316799360" class="fil1" d="M1318.25 514.091c0,0 137.799,-94.1694 177.926,53.0894 147.594,-38.8784 134.941,127.545 134.941,127.545 -43.2012,-157.482 -170.61,-65.7626 -170.61,-65.7626 0,0 15.7264,-156.2 -142.257,-114.872z"/>
    <polygon id="_316798280" class="fil1" points="1498.03,650.627 1422.98,607.297 1482.17,591.437 "/>
   </g>
   <g>
    <path id="_316798256" class="fil2" d="M1283.3 650.489c0,0 108.863,-74.3953 140.564,41.941 116.601,-30.7134 106.604,100.761 106.604,100.761 -34.1292,-124.412 -134.783,-51.952 -134.783,-51.952 0,0 12.424,-123.399 -112.386,-90.7501z"/>
    <polygon id="_316798616" class="fil2" points="1425.33,758.355 1366.04,724.123 1412.8,711.593 "/>
   </g>
   <rect id="_316798424" class="fil3" x="260.98" y="1601.74" width="1526.04" height="190.267"/>
   <g>
    <path id="_316798664" class="fil4" d="M271.242 1647.35c-0.0661418,1.07008 0.747638,1.9937 1.81772,2.05984 1.07008,0.0661418 1.99488,-0.747638 2.06103,-1.81772 0.0011811,-0.0413386 0.750001,-15.2823 13.2095,-18.9449 1.02874,-0.302362 1.61693,-1.38189 1.31575,-2.41063 -0.302362,-1.02756 -1.38189,-1.61693 -2.41063,-1.31457 -15.1193,4.44567 -15.991,22.3784 -15.9933,22.428z"/>
    <path id="_316798184" class="fil4" d="M284.395 1663.25c-0.0661418,1.07008 0.747638,1.99488 1.81772,2.05984 1.07008,0.0661418 1.99488,-0.747638 2.06103,-1.81772 0.0011811,-0.0413386 0.751182,-15.2823 13.2095,-18.9449 1.02874,-0.302362 1.61693,-1.38189 1.31575,-2.40945 -0.302362,-1.02874 -1.38189,-1.61811 -2.41063,-1.31575 -15.1193,4.44567 -15.991,22.3784 -15.9933,22.428z"/>
    <path id="_316797272" class="fil4" d="M313.445 1647.35c-0.0661418,1.07008 0.748819,1.9937 1.8189,2.05984 1.0689,0.0661418 1.9937,-0.747638 2.05984,-1.81772 0.0011811,-0.0413386 0.751182,-15.2823 13.2095,-18.9449 1.02874,-0.302362 1.61811,-1.38189 1.31575,-2.41063 -0.302362,-1.02756 -1.38071,-1.61693 -2.40945,-1.31457 -15.1205,4.44567 -15.991,22.3784 -15.9945,22.428z"/>
    <path id="_316797968" class="fil4" d="M326.599 1663.25c-0.0661418,1.07008 0.748819,1.99488 1.8189,2.05984 1.07008,0.0661418 1.9937,-0.747638 2.05984,-1.81772 0.0011811,-0.0413386 0.751182,-15.2823 13.2095,-18.9449 1.02874,-0.302362 1.61811,-1.38189 1.31575,-2.40945 -0.302362,-1.02874 -1.38071,-1.61811 -2.40945,-1.31575 -15.1205,4.44567 -15.991,22.3784 -15.9945,22.428z"/>
    <path id="_316797896" class="fil4" d="M355.649 1647.35c-0.0661418,1.07008 0.747638,1.9937 1.81772,2.05984 1.07008,0.0661418 1.99488,-0.747638 2.05984,-1.81772 0.00236221,-0.0413386 0.751182,-15.2823 13.2106,-18.9449 1.02874,-0.302362 1.61693,-1.38189 1.31457,-2.41063 -0.301181,-1.02756 -1.38071,-1.61693 -2.40945,-1.31457 -15.1205,4.44567 -15.991,22.3784 -15.9933,22.428z"/>
    <path id="_316797752" class="fil4" d="M368.803 1663.25c-0.0661418,1.07008 0.747638,1.99488 1.81772,2.05984 1.07008,0.0661418 1.99488,-0.747638 2.06103,-1.81772 0.0011811,-0.0413386 0.751182,-15.2823 13.2095,-18.9449 1.02874,-0.302362 1.61693,-1.38189 1.31575,-2.40945 -0.302362,-1.02874 -1.38189,-1.61811 -2.41063,-1.31575 -15.1193,4.44567 -15.991,22.3784 -15.9933,22.428z"/>
    <path id="_316797248" class="fil4" d="M397.852 1647.35c-0.0661418,1.07008 0.747638,1.9937 1.81772,2.05984 1.07008,0.0661418 1.99488,-0.747638 2.06103,-1.81772 0.0011811,-0.0413386 0.751182,-15.2823 13.2095,-18.9449 1.02874,-0.302362 1.61811,-1.38189 1.31575,-2.41063 -0.302362,-1.02756 -1.38189,-1.61693 -2.40945,-1.31457 -15.1205,4.44567 -15.991,22.3784 -15.9945,22.428z"/>
    <path id="_316797560" class="fil4" d="M411.006 1663.25c-0.0661418,1.07008 0.748819,1.99488 1.8189,2.05984 1.07008,0.0661418 1.9937,-0.747638 2.05984,-1.81772 0.0011811,-0.0413386 0.751182,-15.2823 13.2095,-18.9449 1.02874,-0.302362 1.61811,-1.38189 1.31575,-2.40945 -0.302362,-1.02874 -1.38071,-1.61811 -2.40945,-1.31575 -15.1205,4.44567 -15.991,22.3784 -15.9945,22.428z"/>
    <path id="_316797536" class="fil4" d="M438.963 1647.35c-0.0661418,1.07008 0.747638,1.9937 1.81772,2.05984 1.07008,0.0661418 1.99488,-0.747638 2.06103,-1.81772 0.0011811,-0.0413386 0.751182,-15.2823 13.2095,-18.9449 1.02874,-0.302362 1.61693,-1.38189 1.31575,-2.41063 -0.302362,-1.02756 -1.38189,-1.61693 -2.41063,-1.31457 -15.1193,4.44567 -15.991,22.3784 -15.9933,22.428z"/>
    <path id="_316797728" class="fil4" d="M452.117 1663.25c-0.0661418,1.07008 0.747638,1.99488 1.81772,2.05984 1.07008,0.0661418 1.99488,-0.747638 2.06103,-1.81772 0.0011811,-0.0413386 0.751182,-15.2823 13.2095,-18.9449 1.02874,-0.302362 1.61693,-1.38189 1.31575,-2.40945 -0.302362,-1.02874 -1.38189,-1.61811 -2.41063,-1.31575 -15.1193,4.44567 -15.991,22.3784 -15.9933,22.428z"/>
    <path id="_316797584" class="fil4" d="M481.166 1647.35c-0.0661418,1.07008 0.748819,1.9937 1.8189,2.05984 1.07008,0.0661418 1.9937,-0.747638 2.05984,-1.81772 0.0011811,-0.0413386 0.751182,-15.2823 13.2095,-18.9449 1.02874,-0.302362 1.61811,-1.38189 1.31575,-2.41063 -0.302362,-1.02756 -1.38071,-1.61693 -2.40945,-1.31457 -15.1205,4.44567 -15.991,22.3784 -15.9945,22.428z"/>
    <path id="_316797464" class="fil4" d="M494.32 1663.25c-0.0649607,1.07008 0.748819,1.99488 1.8189,2.05984 1.07008,0.0661418 1.9937,-0.747638 2.05984,-1.81772 0.0011811,-0.0413386 0.751182,-15.2823 13.2106,-18.9449 1.02756,-0.302362 1.61693,-1.38189 1.31457,-2.40945 -0.302362,-1.02874 -1.38071,-1.61811 -2.40945,-1.31575 -15.1205,4.44567 -15.991,22.3784 -15.9945,22.428z"/>
    <path id="_316796912" class="fil4" d="M523.37 1647.35c-0.0661418,1.07008 0.747638,1.9937 1.81772,2.05984 1.07008,0.0661418 1.99488,-0.747638 2.05984,-1.81772 0.00236221,-0.0413386 0.751182,-15.2823 13.2106,-18.9449 1.02874,-0.302362 1.61693,-1.38189 1.31457,-2.41063 -0.301181,-1.02756 -1.38071,-1.61693 -2.40945,-1.31457 -15.1205,4.44567 -15.991,22.3784 -15.9933,22.428z"/>
    <path id="_316797032" class="fil4" d="M536.524 1663.25c-0.0661418,1.07008 0.747638,1.99488 1.81772,2.05984 1.07008,0.0661418 1.99488,-0.747638 2.06103,-1.81772 0.0011811,-0.0413386 0.751182,-15.2823 13.2095,-18.9449 1.02874,-0.302362 1.61693,-1.38189 1.31575,-2.40945 -0.302362,-1.02874 -1.38189,-1.61811 -2.41063,-1.31575 -15.1193,4.44567 -15.991,22.3784 -15.9933,22.428z"/>
    <path id="_316796816" class="fil4" d="M565.574 1647.35c-0.0661418,1.07008 0.747638,1.9937 1.81772,2.05984 1.07008,0.0661418 1.99488,-0.747638 2.06103,-1.81772 0.0011811,-0.0413386 0.751182,-15.2823 13.2095,-18.9449 1.02874,-0.302362 1.61811,-1.38189 1.31575,-2.41063 -0.302362,-1.02756 -1.38189,-1.61693 -2.40945,-1.31457 -15.1205,4.44567 -15.991,22.3784 -15.9945,22.428z"/>
    <path id="_316797152" class="fil4" d="M578.728 1663.25c-0.0661418,1.07008 0.748819,1.99488 1.8189,2.05984 1.07008,0.0661418 1.9937,-0.747638 2.05984,-1.81772 0.0011811,-0.0413386 0.751182,-15.2823 13.2095,-18.9449 1.02874,-0.302362 1.61811,-1.38189 1.31575,-2.40945 -0.302362,-1.02874 -1.38071,-1.61811 -2.40945,-1.31575 -15.1205,4.44567 -15.991,22.3784 -15.9945,22.428z"/>
    <path id="_316797104" class="fil4" d="M608.059 1647.35c-0.0661418,1.07008 0.748819,1.9937 1.8189,2.05984 1.07008,0.0661418 1.9937,-0.747638 2.05984,-1.81772 0.0011811,-0.0413386 0.751182,-15.2823 13.2095,-18.9449 1.02874,-0.302362 1.61811,-1.38189 1.31575,-2.41063 -0.302362,-1.02756 -1.38071,-1.61693 -2.40945,-1.31457 -15.1205,4.44567 -15.991,22.3784 -15.9945,22.428z"/>
    <path id="_316796552" class="fil4" d="M621.213 1663.25c-0.0649607,1.07008 0.748819,1.99488 1.8189,2.05984 1.07008,0.0661418 1.9937,-0.747638 2.05984,-1.81772 0.0011811,-0.0413386 0.751182,-15.2823 13.2106,-18.9449 1.02756,-0.302362 1.61693,-1.38189 1.31457,-2.40945 -0.302362,-1.02874 -1.38071,-1.61811 -2.40945,-1.31575 -15.1205,4.44567 -15.991,22.3784 -15.9945,22.428z"/>
    <path id="_316796960" class="fil4" d="M650.263 1647.35c-0.0661418,1.07008 0.747638,1.9937 1.81772,2.05984 1.07008,0.0661418 1.99488,-0.747638 2.05984,-1.81772 0.00236221,-0.0413386 0.751182,-15.2823 13.2106,-18.9449 1.02874,-0.302362 1.61693,-1.38189 1.31457,-2.41063 -0.301181,-1.02756 -1.38071,-1.61693 -2.40945,-1.31457 -15.1205,4.44567 -15.991,22.3784 -15.9933,22.428z"/>
    <path id="_316796600" class="fil4" d="M663.417 1663.25c-0.0661418,1.07008 0.747638,1.99488 1.81772,2.05984 1.07008,0.0661418 1.99488,-0.747638 2.06103,-1.81772 0.0011811,-0.0413386 0.751182,-15.2823 13.2095,-18.9449 1.02874,-0.302362 1.61693,-1.38189 1.31575,-2.40945 -0.302362,-1.02874 -1.38189,-1.61811 -2.41063,-1.31575 -15.1193,4.44567 -15.991,22.3784 -15.9933,22.428z"/>
    <path id="_316796984" class="fil4" d="M692.467 1647.35c-0.0661418,1.07008 0.747638,1.9937 1.81772,2.05984 1.07008,0.0661418 1.99488,-0.747638 2.06103,-1.81772 0.0011811,-0.0413386 0.751182,-15.2823 13.2095,-18.9449 1.02874,-0.302362 1.61811,-1.38189 1.31575,-2.41063 -0.302362,-1.02756 -1.38189,-1.61693 -2.40945,-1.31457 -15.1205,4.44567 -15.991,22.3784 -15.9945,22.428z"/>
    <path id="_316796576" class="fil4" d="M902.392 1647.35c-0.0661418,1.07008 0.747638,1.9937 1.81772,2.05984 1.07008,0.0661418 1.99488,-0.747638 2.05984,-1.81772 0.00236221,-0.0413386 0.751182,-15.2823 13.2106,-18.9449 1.02874,-0.302362 1.61693,-1.38189 1.31457,-2.41063 -0.301181,-1.02756 -1.38071,-1.61693 -2.40945,-1.31457 -15.1205,4.44567 -15.991,22.3784 -15.9933,22.428z"/>
    <path id="_316796504" class="fil4" d="M915.546 1663.25c-0.0661418,1.07008 0.747638,1.99488 1.81772,2.05984 1.07008,0.0661418 1.99488,-0.747638 2.06103,-1.81772 0.0011811,-0.0413386 0.751182,-15.2823 13.2095,-18.9449 1.02874,-0.302362 1.61693,-1.38189 1.31575,-2.40945 -0.302362,-1.02874 -1.38189,-1.61811 -2.41063,-1.31575 -15.1193,4.44567 -15.991,22.3784 -15.9933,22.428z"/>
    <path id="_316795760" class="fil4" d="M944.878 1647.35c-0.0661418,1.07008 0.747638,1.9937 1.81772,2.05984 1.07008,0.0661418 1.99488,-0.747638 2.06103,-1.81772 0.0011811,-0.0413386 0.751182,-15.2823 13.2095,-18.9449 1.02874,-0.302362 1.61693,-1.38189 1.31575,-2.41063 -0.302362,-1.02756 -1.38189,-1.61693 -2.41063,-1.31457 -15.1193,4.44567 -15.991,22.3784 -15.9933,22.428z"/>
    <path id="_316796432" class="fil4" d="M958.032 1663.25c-0.0661418,1.07008 0.747638,1.99488 1.81772,2.05984 1.07008,0.0661418 1.99488,-0.747638 2.06103,-1.81772 0.0011811,-0.0413386 0.751182,-15.2823 13.2095,-18.9449 1.02874,-0.302362 1.61693,-1.38189 1.31575,-2.40945 -0.302362,-1.02874 -1.38189,-1.61811 -2.41063,-1.31575 -15.1193,4.44567 -15.991,22.3784 -15.9933,22.428z"/>
    <path id="_316796264" class="fil4" d="M987.081 1647.35c-0.0661418,1.07008 0.748819,1.9937 1.8189,2.05984 1.0689,0.0661418 1.9937,-0.747638 2.05984,-1.81772 0.0011811,-0.0413386 0.751182,-15.2823 13.2095,-18.9449 1.02874,-0.302362 1.61811,-1.38189 1.31575,-2.41063 -0.302362,-1.02756 -1.38071,-1.61693 -2.40945,-1.31457 -15.1205,4.44567 -15.991,22.3784 -15.9945,22.428z"/>
    <path id="_316796144" class="fil4" d="M1000.24 1663.25c-0.0661418,1.07008 0.748819,1.99488 1.8189,2.05984 1.07008,0.0661418 1.9937,-0.747638 2.05984,-1.81772 0.0011811,-0.0413386 0.751182,-15.2823 13.2106,-18.9449 1.02756,-0.302362 1.61693,-1.38189 1.31457,-2.40945 -0.302362,-1.02874 -1.38071,-1.61811 -2.40945,-1.31575 -15.1205,4.44567 -15.991,22.3784 -15.9945,22.428z"/>
    <path id="_316796072" class="fil4" d="M1029.29 1647.35c-0.0661418,1.07008 0.747638,1.9937 1.81772,2.05984 1.07008,0.0661418 1.99488,-0.747638 2.05984,-1.81772 0.00236221,-0.0413386 0.751182,-15.2823 13.2106,-18.9449 1.02874,-0.302362 1.61693,-1.38189 1.31457,-2.41063 -0.301181,-1.02756 -1.38071,-1.61693 -2.40945,-1.31457 -15.1205,4.44567 -15.991,22.3784 -15.9933,22.428z"/>
    <path id="_316796288" class="fil4" d="M1042.44 1663.25c-0.0661418,1.07008 0.747638,1.99488 1.81772,2.05984 1.07008,0.0661418 1.99488,-0.747638 2.06103,-1.81772 0.0011811,-0.0413386 0.751182,-15.2823 13.2095,-18.9449 1.02874,-0.302362 1.61693,-1.38189 1.31575,-2.40945 -0.302362,-1.02874 -1.38189,-1.61811 -2.41063,-1.31575 -15.1193,4.44567 -15.991,22.3784 -15.9933,22.428z"/>
    <path id="_316796048" class="fil4" d="M1071.49 1647.35c-0.0661418,1.07008 0.747638,1.9937 1.81772,2.05984 1.07008,0.0661418 1.99488,-0.747638 2.06103,-1.81772 0.0011811,-0.0413386 0.751182,-15.2823 13.2095,-18.9449 1.02874,-0.302362 1.61811,-1.38189 1.31575,-2.41063 -0.302362,-1.02756 -1.38189,-1.61693 -2.40945,-1.31457 -15.1205,4.44567 -15.991,22.3784 -15.9945,22.428z"/>
    <path id="_316796408" class="fil4" d="M1084.64 1663.25c-0.0661418,1.07008 0.748819,1.99488 1.8189,2.05984 1.07008,0.0661418 1.9937,-0.747638 2.05984,-1.81772 0.0011811,-0.0413386 0.751182,-15.2823 13.2095,-18.9449 1.02874,-0.302362 1.61811,-1.38189 1.31575,-2.40945 -0.302362,-1.02874 -1.38071,-1.61811 -2.40945,-1.31575 -15.1205,4.44567 -15.991,22.3784 -15.9945,22.428z"/>
    <path id="_316796168" class="fil4" d="M1112.6 1647.35c-0.0661418,1.07008 0.747638,1.9937 1.81772,2.05984 1.07008,0.0661418 1.99488,-0.747638 2.06103,-1.81772 0.0011811,-0.0413386 0.751182,-15.2823 13.2095,-18.9449 1.02874,-0.302362 1.61693,-1.38189 1.31575,-2.41063 -0.302362,-1.02756 -1.38189,-1.61693 -2.41063,-1.31457 -15.1193,4.44567 -15.991,22.3784 -15.9933,22.428z"/>
    <path id="_316795880" class="fil4" d="M1125.75 1663.25c-0.0661418,1.07008 0.747638,1.99488 1.81772,2.05984 1.07008,0.0661418 1.99488,-0.747638 2.06103,-1.81772 0.0011811,-0.0413386 0.751182,-15.2823 13.2095,-18.9449 1.02874,-0.302362 1.61693,-1.38189 1.31575,-2.40945 -0.302362,-1.02874 -1.38189,-1.61811 -2.41063,-1.31575 -15.1193,4.44567 -15.9898,22.3784 -15.9933,22.428z"/>
    <path id="_316795232" class="fil4" d="M1154.8 1647.35c-0.0661418,1.07008 0.748819,1.9937 1.8189,2.05984 1.07008,0.0661418 1.9937,-0.747638 2.05984,-1.81772 0.0011811,-0.0413386 0.751182,-15.2823 13.2095,-18.9449 1.02874,-0.302362 1.61811,-1.38189 1.31575,-2.41063 -0.302362,-1.02756 -1.38071,-1.61693 -2.40945,-1.31457 -15.1205,4.44567 -15.991,22.3784 -15.9945,22.428z"/>
    <path id="_316795112" class="fil4" d="M1167.96 1663.25c-0.0649607,1.07008 0.748819,1.99488 1.8189,2.05984 1.07008,0.0661418 1.9937,-0.747638 2.05984,-1.81772 0.0011811,-0.0413386 0.751182,-15.2823 13.2106,-18.9449 1.02756,-0.302362 1.61693,-1.38189 1.31457,-2.40945 -0.302362,-1.02874 -1.38071,-1.61811 -2.40945,-1.31575 -15.1205,4.44567 -15.991,22.3784 -15.9945,22.428z"/>
    <path id="_316795664" class="fil4" d="M1197.01 1647.35c-0.0661418,1.07008 0.747638,1.9937 1.81772,2.05984 1.07008,0.0661418 1.99488,-0.747638 2.05984,-1.81772 0.00236221,-0.0413386 0.751182,-15.2823 13.2106,-18.9449 1.02874,-0.302362 1.61693,-1.38189 1.31457,-2.41063 -0.301181,-1.02756 -1.38071,-1.61693 -2.40945,-1.31457 -15.1205,4.44567 -15.991,22.3784 -15.9933,22.428z"/>
    <path id="_316795448" class="fil4" d="M1210.16 1663.25c-0.0661418,1.07008 0.747638,1.99488 1.81772,2.05984 1.07008,0.0661418 1.99488,-0.747638 2.06103,-1.81772 0.0011811,-0.0413386 0.751182,-15.2823 13.2095,-18.9449 1.02874,-0.302362 1.61693,-1.38189 1.31575,-2.40945 -0.302362,-1.02874 -1.38189,-1.61811 -2.41063,-1.31575 -15.1193,4.44567 -15.991,22.3784 -15.9933,22.428z"/>
    <path id="_316795496" class="fil4" d="M1239.21 1647.35c-0.0661418,1.07008 0.748819,1.9937 1.81772,2.05984 1.07008,0.0661418 1.99488,-0.747638 2.06103,-1.81772 0.0011811,-0.0413386 0.751182,-15.2823 13.2095,-18.9449 1.02874,-0.302362 1.61811,-1.38189 1.31575,-2.41063 -0.302362,-1.02756 -1.38189,-1.61693 -2.40945,-1.31457 -15.1205,4.44567 -15.991,22.3784 -15.9945,22.428z"/>
    <path id="_316795160" class="fil4" d="M1252.36 1663.25c-0.0661418,1.07008 0.748819,1.99488 1.8189,2.05984 1.07008,0.0661418 1.9937,-0.747638 2.05984,-1.81772 0.0011811,-0.0413386 0.751182,-15.2823 13.2095,-18.9449 1.02874,-0.302362 1.61811,-1.38189 1.31575,-2.40945 -0.302362,-1.02874 -1.38071,-1.61811 -2.40945,-1.31575 -15.1205,4.44567 -15.991,22.3784 -15.9945,22.428z"/>
    <path id="_316795640" class="fil4" d="M1281.7 1647.35c-0.0661418,1.07008 0.748819,1.9937 1.8189,2.05984 1.07008,0.0661418 1.9937,-0.747638 2.05984,-1.81772 0.0011811,-0.0413386 0.751182,-15.2823 13.2095,-18.9449 1.02874,-0.302362 1.61811,-1.38189 1.31575,-2.41063 -0.302362,-1.02756 -1.38071,-1.61693 -2.40945,-1.31457 -15.1205,4.44567 -15.991,22.3784 -15.9945,22.428z"/>
    <path id="_316794968" class="fil4" d="M1294.85 1663.25c-0.0649607,1.07008 0.748819,1.99488 1.8189,2.05984 1.07008,0.0661418 1.9937,-0.747638 2.05984,-1.81772 0.0011811,-0.0413386 0.751182,-15.2823 13.2106,-18.9449 1.02756,-0.302362 1.61693,-1.38189 1.31457,-2.40945 -0.301181,-1.02874 -1.38071,-1.61811 -2.40945,-1.31575 -15.1205,4.44567 -15.991,22.3784 -15.9945,22.428z"/>
    <path id="_316795592" class="fil4" d="M1323.9 1647.35c-0.0661418,1.07008 0.747638,1.9937 1.81772,2.05984 1.07008,0.0661418 1.99488,-0.747638 2.05984,-1.81772 0.00236221,-0.0413386 0.751182,-15.2823 13.2106,-18.9449 1.02874,-0.302362 1.61693,-1.38189 1.31457,-2.41063 -0.301181,-1.02756 -1.38071,-1.61693 -2.40945,-1.31457 -15.1205,4.44567 -15.991,22.3784 -15.9933,22.428z"/>
    <path id="_316795568" class="fil4" d="M1337.05 1663.25c-0.0661418,1.07008 0.747638,1.99488 1.81772,2.05984 1.07008,0.0661418 1.99488,-0.747638 2.06103,-1.81772 0.0011811,-0.0413386 0.751182,-15.2823 13.2095,-18.9449 1.02874,-0.302362 1.61693,-1.38189 1.31575,-2.40945 -0.302362,-1.02874 -1.38189,-1.61811 -2.41063,-1.31575 -15.1193,4.44567 -15.991,22.3784 -15.9933,22.428z"/>
    <path id="_316795256" class="fil4" d="M1366.1 1647.35c-0.0661418,1.07008 0.748819,1.9937 1.81772,2.05984 1.07008,0.0661418 1.99488,-0.747638 2.06103,-1.81772 0.0011811,-0.0413386 0.751182,-15.2823 13.2095,-18.9449 1.02874,-0.302362 1.61811,-1.38189 1.31575,-2.41063 -0.302362,-1.02756 -1.38189,-1.61693 -2.40945,-1.31457 -15.1205,4.44567 -15.991,22.3784 -15.9945,22.428z"/>
    <path id="_316794848" class="fil4" d="M1379.26 1663.25c-0.0661418,1.07008 0.748819,1.99488 1.8189,2.05984 1.07008,0.0661418 1.9937,-0.747638 2.05984,-1.81772 0.0011811,-0.0413386 0.751182,-15.2823 13.2095,-18.9449 1.02874,-0.302362 1.61811,-1.38189 1.31575,-2.40945 -0.302362,-1.02874 -1.38071,-1.61811 -2.40945,-1.31575 -15.1205,4.44567 -15.991,22.3784 -15.9945,22.428z"/>
    <path id="_316794800" class="fil4" d="M1408.31 1647.35c-0.0661418,1.07008 0.747638,1.9937 1.81772,2.05984 1.07008,0.0661418 1.99488,-0.747638 2.05984,-1.81772 0.00236221,-0.0413386 0.751182,-15.2823 13.2106,-18.9449 1.02874,-0.302362 1.61693,-1.38189 1.31457,-2.41063 -0.301181,-1.02756 -1.38071,-1.61693 -2.40945,-1.31457 -15.1205,4.44567 -15.991,22.3784 -15.9933,22.428z"/>
    <path id="_316794464" class="fil4" d="M1421.46 1663.25c-0.0661418,1.07008 0.747638,1.99488 1.81772,2.05984 1.07008,0.0661418 1.99488,-0.747638 2.06103,-1.81772 0.0011811,-0.0413386 0.750001,-15.2823 13.2095,-18.9449 1.02874,-0.302362 1.61693,-1.38189 1.31575,-2.40945 -0.302362,-1.02874 -1.38189,-1.61811 -2.41063,-1.31575 -15.1193,4.44567 -15.991,22.3784 -15.9933,22.428z"/>
    <path id="_316794632" class="fil4" d="M1449.42 1647.35c-0.0661418,1.07008 0.748819,1.9937 1.8189,2.05984 1.07008,0.0661418 1.9937,-0.747638 2.05984,-1.81772 0.0011811,-0.0413386 0.751182,-15.2823 13.2095,-18.9449 1.02874,-0.302362 1.61811,-1.38189 1.31575,-2.41063 -0.302362,-1.02756 -1.38071,-1.61693 -2.40945,-1.31457 -15.1205,4.44567 -15.991,22.3784 -15.9945,22.428z"/>
    <path id="_316794608" class="fil4" d="M1462.57 1663.25c-0.0649607,1.07008 0.748819,1.99488 1.8189,2.05984 1.07008,0.0661418 1.9937,-0.747638 2.05984,-1.81772 0.00236221,-0.0413386 0.751182,-15.2823 13.2106,-18.9449 1.02874,-0.302362 1.61693,-1.38189 1.31457,-2.40945 -0.301181,-1.02874 -1.38071,-1.61811 -2.40945,-1.31575 -15.1205,4.44567 -15.991,22.3784 -15.9945,22.428z"/>
    <path id="_316794320" class="fil4" d="M1491.62 1647.35c-0.0661418,1.07008 0.747638,1.9937 1.81772,2.05984 1.07008,0.0661418 1.99488,-0.747638 2.06103,-1.81772 0.0011811,-0.0413386 0.751182,-15.2823 13.2095,-18.9449 1.02874,-0.302362 1.61693,-1.38189 1.31575,-2.41063 -0.302362,-1.02756 -1.38189,-1.61693 -2.41063,-1.31457 -15.1193,4.44567 -15.991,22.3784 -15.9933,22.428z"/>
    <path id="_316794752" class="fil4" d="M1504.78 1663.25c-0.0661418,1.07008 0.747638,1.99488 1.81772,2.05984 1.07008,0.0661418 1.99488,-0.747638 2.06103,-1.81772 0.0011811,-0.0413386 0.751182,-15.2823 13.2095,-18.9449 1.02874,-0.302362 1.61693,-1.38189 1.31575,-2.40945 -0.302362,-1.02874 -1.38189,-1.61811 -2.41063,-1.31575 -15.1193,4.44567 -15.991,22.3784 -15.9933,22.428z"/>
    <path id="_316794392" class="fil4" d="M1533.82 1647.35c-0.0661418,1.07008 0.748819,1.9937 1.8189,2.05984 1.0689,0.0661418 1.9937,-0.747638 2.05984,-1.81772 0.0011811,-0.0413386 0.751182,-15.2823 13.2095,-18.9449 1.02874,-0.302362 1.61811,-1.38189 1.31575,-2.41063 -0.302362,-1.02756 -1.38071,-1.61693 -2.40945,-1.31457 -15.1205,4.44567 -15.991,22.3784 -15.9945,22.428z"/>
    <path id="_316794776" class="fil4" d="M1546.98 1663.25c-0.0661418,1.07008 0.748819,1.99488 1.8189,2.05984 1.07008,0.0661418 1.9937,-0.747638 2.05984,-1.81772 0.0011811,-0.0413386 0.751182,-15.2823 13.2106,-18.9449 1.02756,-0.302362 1.61693,-1.38189 1.31457,-2.40945 -0.302362,-1.02874 -1.38071,-1.61811 -2.40945,-1.31575 -15.1205,4.44567 -15.991,22.3784 -15.9945,22.428z"/>
    <path id="_316794584" class="fil4" d="M1576.03 1647.35c-0.0661418,1.07008 0.747638,1.9937 1.81772,2.05984 1.07008,0.0661418 1.99488,-0.747638 2.05984,-1.81772 0.00236221,-0.0413386 0.751182,-15.2823 13.2106,-18.9449 1.02874,-0.302362 1.61693,-1.38189 1.31457,-2.41063 -0.301181,-1.02756 -1.38071,-1.61693 -2.40945,-1.31457 -15.1205,4.44567 -15.991,22.3784 -15.9933,22.428z"/>
    <path id="_316793768" class="fil4" d="M1589.18 1663.25c-0.0661418,1.07008 0.747638,1.99488 1.81772,2.05984 1.07008,0.0661418 1.99488,-0.747638 2.06103,-1.81772 0.0011811,-0.0413386 0.751182,-15.2823 13.2095,-18.9449 1.02874,-0.302362 1.61693,-1.38189 1.31575,-2.40945 -0.302362,-1.02874 -1.38189,-1.61811 -2.41063,-1.31575 -15.1193,4.44567 -15.991,22.3784 -15.9933,22.428z"/>
    <path id="_316793744" class="fil4" d="M1618.51 1647.35c-0.0661418,1.07008 0.747638,1.9937 1.81772,2.05984 1.07008,0.0661418 1.99488,-0.747638 2.06103,-1.81772 0.0011811,-0.0413386 0.751182,-15.2823 13.2095,-18.9449 1.02874,-0.302362 1.61693,-1.38189 1.31575,-2.41063 -0.302362,-1.02756 -1.38189,-1.61693 -2.41063,-1.31457 -15.1193,4.44567 -15.991,22.3784 -15.9933,22.428z"/>
    <path id="_316793888" class="fil4" d="M1631.67 1663.25c-0.0661418,1.07008 0.747638,1.99488 1.81772,2.05984 1.07008,0.0661418 1.99488,-0.747638 2.06103,-1.81772 0.0011811,-0.0413386 0.751182,-15.2823 13.2095,-18.9449 1.02874,-0.302362 1.61693,-1.38189 1.31575,-2.40945 -0.302362,-1.02874 -1.38189,-1.61811 -2.41063,-1.31575 -15.1193,4.44567 -15.991,22.3784 -15.9933,22.428z"/>
    <path id="_316793672" class="fil4" d="M1660.72 1647.35c-0.0661418,1.07008 0.748819,1.9937 1.8189,2.05984 1.0689,0.0661418 1.9937,-0.747638 2.05984,-1.81772 0.0011811,-0.0413386 0.751182,-15.2823 13.2095,-18.9449 1.02874,-0.302362 1.61811,-1.38189 1.31575,-2.41063 -0.302362,-1.02756 -1.38071,-1.61693 -2.40945,-1.31457 -15.1205,4.44567 -15.991,22.3784 -15.9945,22.428z"/>
    <path id="_316793456" class="fil4" d="M1673.87 1663.25c-0.0661418,1.07008 0.748819,1.99488 1.8189,2.05984 1.07008,0.0661418 1.9937,-0.747638 2.05984,-1.81772 0.0011811,-0.0413386 0.751182,-15.2823 13.2106,-18.9449 1.02756,-0.302362 1.61693,-1.38189 1.31457,-2.40945 -0.302362,-1.02874 -1.38071,-1.61811 -2.40945,-1.31575 -15.1205,4.44567 -15.991,22.3784 -15.9945,22.428z"/>
    <path id="_316793408" class="fil4" d="M1702.92 1647.35c-0.0661418,1.07008 0.747638,1.9937 1.81772,2.05984 1.07008,0.0661418 1.99488,-0.747638 2.05984,-1.81772 0.00236221,-0.0413386 0.751182,-15.2823 13.2106,-18.9449 1.02874,-0.302362 1.61693,-1.38189 1.31457,-2.41063 -0.301181,-1.02756 -1.38071,-1.61693 -2.40945,-1.31457 -15.1205,4.44567 -15.991,22.3784 -15.9933,22.428z"/>
    <path id="_316794128" class="fil4" d="M1716.08 1663.25c-0.0661418,1.07008 0.747638,1.99488 1.81772,2.05984 1.07008,0.0661418 1.99488,-0.747638 2.06103,-1.81772 0.0011811,-0.0413386 0.751182,-15.2823 13.2095,-18.9449 1.02874,-0.302362 1.61693,-1.38189 1.31575,-2.40945 -0.302362,-1.02874 -1.38189,-1.61811 -2.41063,-1.31575 -15.1193,4.44567 -15.991,22.3784 -15.9933,22.428z"/>
    <path id="_316794080" class="fil4" d="M1745.12 1647.35c-0.0661418,1.07008 0.747638,1.9937 1.81772,2.05984 1.07008,0.0661418 1.99488,-0.747638 2.06103,-1.81772 0.0011811,-0.0413386 0.751182,-15.2823 13.2095,-18.9449 1.02874,-0.302362 1.61811,-1.38189 1.31575,-2.41063 -0.302362,-1.02756 -1.38189,-1.61693 -2.40945,-1.31457 -15.1205,4.44567 -15.991,22.3784 -15.9945,22.428z"/>
    <path id="_316793576" class="fil4" d="M1758.28 1663.25c-0.0661418,1.07008 0.748819,1.99488 1.8189,2.05984 1.07008,0.0661418 1.9937,-0.747638 2.05984,-1.81772 0.0011811,-0.0413386 0.751182,-15.2823 13.2095,-18.9449 1.02874,-0.302362 1.61811,-1.38189 1.31575,-2.40945 -0.302362,-1.02874 -1.38071,-1.61811 -2.40945,-1.31575 -15.1205,4.44567 -15.991,22.3784 -15.9945,22.428z"/>
    <g>
     <path id="_316793432" class="fil4" d="M271.242 1699.14c-0.0661418,1.0689 0.747638,1.9937 1.81772,2.05984 1.07008,0.0661418 1.99488,-0.747638 2.06103,-1.81772 0.0011811,-0.0413386 0.750001,-15.2835 13.2095,-18.9449 1.02874,-0.302362 1.61693,-1.38189 1.31575,-2.41063 -0.302362,-1.02874 -1.38189,-1.61693 -2.41063,-1.31457 -15.1193,4.44567 -15.991,22.3784 -15.9933,22.428z"/>
     <path id="_316793504" class="fil4" d="M284.395 1715.04c-0.0661418,1.07008 0.747638,1.9937 1.81772,2.05984 1.07008,0.0661418 1.99488,-0.747638 2.06103,-1.81772 0.0011811,-0.0413386 0.751182,-15.2823 13.2095,-18.9449 1.02874,-0.302362 1.61693,-1.38189 1.31575,-2.41063 -0.302362,-1.02874 -1.38189,-1.61693 -2.41063,-1.31457 -15.1193,4.44567 -15.991,22.3784 -15.9933,22.428z"/>
     <path id="_316793168" class="fil4" d="M313.445 1699.14c-0.0661418,1.0689 0.748819,1.9937 1.8189,2.05984 1.0689,0.0661418 1.9937,-0.747638 2.05984,-1.81772 0.0011811,-0.0413386 0.751182,-15.2835 13.2095,-18.9449 1.02874,-0.302362 1.61811,-1.38189 1.31575,-2.41063 -0.302362,-1.02874 -1.38071,-1.61693 -2.40945,-1.31457 -15.1205,4.44567 -15.991,22.3784 -15.9945,22.428z"/>
     <path id="_316792952" class="fil4" d="M326.599 1715.04c-0.0661418,1.07008 0.748819,1.9937 1.8189,2.05984 1.07008,0.0661418 1.9937,-0.747638 2.05984,-1.81772 0.0011811,-0.0413386 0.751182,-15.2823 13.2095,-18.9449 1.02874,-0.302362 1.61811,-1.38189 1.31575,-2.41063 -0.302362,-1.02874 -1.38071,-1.61693 -2.40945,-1.31457 -15.1205,4.44567 -15.991,22.3784 -15.9945,22.428z"/>
     <path id="_316792928" class="fil4" d="M355.649 1699.14c-0.0661418,1.0689 0.747638,1.9937 1.81772,2.05984 1.07008,0.0661418 1.99488,-0.747638 2.05984,-1.81772 0.00236221,-0.0413386 0.751182,-15.2835 13.2106,-18.9449 1.02874,-0.302362 1.61693,-1.38189 1.31457,-2.41063 -0.301181,-1.02874 -1.38071,-1.61693 -2.40945,-1.31457 -15.1205,4.44567 -15.991,22.3784 -15.9933,22.428z"/>
     <path id="_316793240" class="fil4" d="M368.803 1715.04c-0.0661418,1.07008 0.747638,1.9937 1.81772,2.05984 1.07008,0.0661418 1.99488,-0.747638 2.06103,-1.81772 0.0011811,-0.0413386 0.751182,-15.2823 13.2095,-18.9449 1.02874,-0.302362 1.61693,-1.38189 1.31575,-2.41063 -0.302362,-1.02874 -1.38189,-1.61693 -2.41063,-1.31457 -15.1193,4.44567 -15.991,22.3784 -15.9933,22.428z"/>
     <path id="_316792832" class="fil4" d="M397.852 1699.14c-0.0661418,1.0689 0.747638,1.9937 1.81772,2.05984 1.07008,0.0661418 1.99488,-0.747638 2.06103,-1.81772 0.0011811,-0.0413386 0.751182,-15.2835 13.2095,-18.9449 1.02874,-0.302362 1.61811,-1.38189 1.31575,-2.41063 -0.302362,-1.02874 -1.38189,-1.61693 -2.40945,-1.31457 -15.1205,4.44567 -15.991,22.3784 -15.9945,22.428z"/>
     <path id="_316793144" class="fil4" d="M411.006 1715.04c-0.0661418,1.07008 0.748819,1.9937 1.8189,2.05984 1.07008,0.0661418 1.9937,-0.747638 2.05984,-1.81772 0.0011811,-0.0413386 0.751182,-15.2823 13.2095,-18.9449 1.02874,-0.302362 1.61811,-1.38189 1.31575,-2.41063 -0.302362,-1.02874 -1.38071,-1.61693 -2.40945,-1.31457 -15.1205,4.44567 -15.991,22.3784 -15.9945,22.428z"/>
     <path id="_316793096" class="fil4" d="M438.963 1699.14c-0.0661418,1.0689 0.747638,1.9937 1.81772,2.05984 1.07008,0.0661418 1.99488,-0.747638 2.06103,-1.81772 0.0011811,-0.0413386 0.751182,-15.2835 13.2095,-18.9449 1.02874,-0.302362 1.61693,-1.38189 1.31575,-2.41063 -0.302362,-1.02874 -1.38189,-1.61693 -2.41063,-1.31457 -15.1193,4.44567 -15.991,22.3784 -15.9933,22.428z"/>
     <path id="_316793072" class="fil4" d="M452.117 1715.04c-0.0661418,1.07008 0.747638,1.9937 1.81772,2.05984 1.07008,0.0661418 1.99488,-0.747638 2.06103,-1.81772 0.0011811,-0.0413386 0.751182,-15.2823 13.2095,-18.9449 1.02874,-0.302362 1.61693,-1.38189 1.31575,-2.41063 -0.302362,-1.02874 -1.38189,-1.61693 -2.41063,-1.31457 -15.1193,4.44567 -15.991,22.3784 -15.9933,22.428z"/>
     <path id="_316793048" class="fil4" d="M481.166 1699.14c-0.0661418,1.0689 0.748819,1.9937 1.8189,2.05984 1.07008,0.0661418 1.9937,-0.747638 2.05984,-1.81772 0.0011811,-0.0413386 0.751182,-15.2835 13.2095,-18.9449 1.02874,-0.302362 1.61811,-1.38189 1.31575,-2.41063 -0.302362,-1.02874 -1.38071,-1.61693 -2.40945,-1.31457 -15.1205,4.44567 -15.991,22.3784 -15.9945,22.428z"/>
     <path id="_316792856" class="fil4" d="M494.32 1715.04c-0.0649607,1.07008 0.748819,1.9937 1.8189,2.05984 1.07008,0.0661418 1.9937,-0.747638 2.05984,-1.81772 0.0011811,-0.0413386 0.751182,-15.2823 13.2106,-18.9449 1.02756,-0.302362 1.61693,-1.38189 1.31457,-2.41063 -0.302362,-1.02874 -1.38071,-1.61693 -2.40945,-1.31457 -15.1205,4.44567 -15.991,22.3784 -15.9945,22.428z"/>
     <path id="_316792088" class="fil4" d="M523.37 1699.14c-0.0661418,1.0689 0.747638,1.9937 1.81772,2.05984 1.07008,0.0661418 1.99488,-0.747638 2.05984,-1.81772 0.00236221,-0.0413386 0.751182,-15.2835 13.2106,-18.9449 1.02874,-0.302362 1.61693,-1.38189 1.31457,-2.41063 -0.301181,-1.02874 -1.38071,-1.61693 -2.40945,-1.31457 -15.1205,4.44567 -15.991,22.3784 -15.9933,22.428z"/>
     <path id="_316792472" class="fil4" d="M536.524 1715.04c-0.0661418,1.07008 0.747638,1.9937 1.81772,2.05984 1.07008,0.0661418 1.99488,-0.747638 2.06103,-1.81772 0.0011811,-0.0413386 0.751182,-15.2823 13.2095,-18.9449 1.02874,-0.302362 1.61693,-1.38189 1.31575,-2.41063 -0.302362,-1.02874 -1.38189,-1.61693 -2.41063,-1.31457 -15.1193,4.44567 -15.991,22.3784 -15.9933,22.428z"/>
     <path id="_316792376" class="fil4" d="M565.574 1699.14c-0.0661418,1.0689 0.747638,1.9937 1.81772,2.05984 1.07008,0.0661418 1.99488,-0.747638 2.06103,-1.81772 0.0011811,-0.0413386 0.751182,-15.2835 13.2095,-18.9449 1.02874,-0.302362 1.61811,-1.38189 1.31575,-2.41063 -0.302362,-1.02874 -1.38189,-1.61693 -2.40945,-1.31457 -15.1205,4.44567 -15.991,22.3784 -15.9945,22.428z"/>
     <path id="_316792568" class="fil4" d="M578.728 1715.04c-0.0661418,1.07008 0.748819,1.9937 1.8189,2.05984 1.07008,0.0661418 1.9937,-0.747638 2.05984,-1.81772 0.0011811,-0.0413386 0.751182,-15.2823 13.2095,-18.9449 1.02874,-0.302362 1.61811,-1.38189 1.31575,-2.41063 -0.302362,-1.02874 -1.38071,-1.61693 -2.40945,-1.31457 -15.1205,4.44567 -15.991,22.3784 -15.9945,22.428z"/>
     <path id="_316791944" class="fil4" d="M608.059 1699.14c-0.0661418,1.0689 0.748819,1.9937 1.8189,2.05984 1.07008,0.0661418 1.9937,-0.747638 2.05984,-1.81772 0.0011811,-0.0413386 0.751182,-15.2835 13.2095,-18.9449 1.02874,-0.302362 1.61811,-1.38189 1.31575,-2.41063 -0.302362,-1.02874 -1.38071,-1.61693 -2.40945,-1.31457 -15.1205,4.44567 -15.991,22.3784 -15.9945,22.428z"/>
     <path id="_316792400" class="fil4" d="M621.213 1715.04c-0.0649607,1.07008 0.748819,1.9937 1.8189,2.05984 1.07008,0.0661418 1.9937,-0.747638 2.05984,-1.81772 0.0011811,-0.0413386 0.751182,-15.2823 13.2106,-18.9449 1.02756,-0.302362 1.61693,-1.38189 1.31457,-2.41063 -0.302362,-1.02874 -1.38071,-1.61693 -2.40945,-1.31457 -15.1205,4.44567 -15.991,22.3784 -15.9945,22.428z"/>
     <path id="_316792352" class="fil4" d="M650.263 1699.14c-0.0661418,1.0689 0.747638,1.9937 1.81772,2.05984 1.07008,0.0661418 1.99488,-0.747638 2.05984,-1.81772 0.00236221,-0.0413386 0.751182,-15.2835 13.2106,-18.9449 1.02874,-0.302362 1.61693,-1.38189 1.31457,-2.41063 -0.301181,-1.02874 -1.38071,-1.61693 -2.40945,-1.31457 -15.1205,4.44567 -15.991,22.3784 -15.9933,22.428z"/>
     <path id="_316792136" class="fil4" d="M663.417 1715.04c-0.0661418,1.07008 0.747638,1.9937 1.81772,2.05984 1.07008,0.0661418 1.99488,-0.747638 2.06103,-1.81772 0.0011811,-0.0413386 0.751182,-15.2823 13.2095,-18.9449 1.02874,-0.302362 1.61693,-1.38189 1.31575,-2.41063 -0.302362,-1.02874 -1.38189,-1.61693 -2.41063,-1.31457 -15.1193,4.44567 -15.991,22.3784 -15.9933,22.428z"/>
     <path id="_316791872" class="fil4" d="M692.467 1699.14c-0.0661418,1.0689 0.747638,1.9937 1.81772,2.05984 1.07008,0.0661418 1.99488,-0.747638 2.06103,-1.81772 0.0011811,-0.0413386 0.751182,-15.2835 13.2095,-18.9449 1.02874,-0.302362 1.61811,-1.38189 1.31575,-2.41063 -0.302362,-1.02874 -1.38189,-1.61693 -2.40945,-1.31457 -15.1205,4.44567 -15.991,22.3784 -15.9945,22.428z"/>
     <path id="_316792520" class="fil4" d="M705.621 1715.04c-0.0661418,1.07008 0.748819,1.9937 1.8189,2.05984 1.07008,0.0661418 1.9937,-0.747638 2.05984,-1.81772 0.0011811,-0.0413386 0.751182,-15.2823 13.2095,-18.9449 1.02874,-0.302362 1.61811,-1.38189 1.31575,-2.41063 -0.302362,-1.02874 -1.38071,-1.61693 -2.40945,-1.31457 -15.1205,4.44567 -15.991,22.3784 -15.9945,22.428z"/>
     <path id="_316792184" class="fil4" d="M734.671 1699.14c-0.0661418,1.0689 0.747638,1.9937 1.81772,2.05984 1.07008,0.0661418 1.99488,-0.747638 2.05984,-1.81772 0.00236221,-0.0413386 0.751182,-15.2835 13.2106,-18.9449 1.02874,-0.302362 1.61693,-1.38189 1.31457,-2.41063 -0.301181,-1.02874 -1.38071,-1.61693 -2.40945,-1.31457 -15.1205,4.44567 -15.991,22.3784 -15.9933,22.428z"/>
     <path id="_316791200" class="fil4" d="M747.825 1715.04c-0.0661418,1.07008 0.747638,1.9937 1.81772,2.05984 1.07008,0.0661418 1.99488,-0.747638 2.05984,-1.81772 0.00236221,-0.0413386 0.751182,-15.2823 13.2106,-18.9449 1.02874,-0.302362 1.61693,-1.38189 1.31575,-2.41063 -0.302362,-1.02874 -1.38189,-1.61693 -2.41063,-1.31457 -15.1193,4.44567 -15.991,22.3784 -15.9933,22.428z"/>
     <path id="_316791128" class="fil4" d="M775.781 1699.14c-0.0661418,1.0689 0.748819,1.9937 1.8189,2.05984 1.07008,0.0661418 1.9937,-0.747638 2.05984,-1.81772 0.0011811,-0.0413386 0.751182,-15.2835 13.2095,-18.9449 1.02874,-0.302362 1.61811,-1.38189 1.31575,-2.41063 -0.302362,-1.02874 -1.38071,-1.61693 -2.40945,-1.31457 -15.1205,4.44567 -15.991,22.3784 -15.9945,22.428z"/>
     <path id="_316791656" class="fil4" d="M788.934 1715.04c-0.0649607,1.07008 0.748819,1.9937 1.8189,2.05984 1.07008,0.0661418 1.9937,-0.747638 2.05984,-1.81772 0.00236221,-0.0413386 0.751182,-15.2823 13.2106,-18.9449 1.02874,-0.302362 1.61693,-1.38189 1.31457,-2.41063 -0.301181,-1.02874 -1.38071,-1.61693 -2.40945,-1.31457 -15.1205,4.44567 -15.991,22.3784 -15.9945,22.428z"/>
     <path id="_316791632" class="fil4" d="M817.985 1699.14c-0.0661418,1.0689 0.747638,1.9937 1.81772,2.05984 1.07008,0.0661418 1.99488,-0.747638 2.06103,-1.81772 0.0011811,-0.0413386 0.750001,-15.2835 13.2095,-18.9449 1.02874,-0.302362 1.61693,-1.38189 1.31575,-2.41063 -0.302362,-1.02874 -1.38189,-1.61693 -2.41063,-1.31457 -15.1193,4.44567 -15.991,22.3784 -15.9933,22.428z"/>
     <path id="_316791608" class="fil4" d="M831.139 1715.04c-0.0661418,1.07008 0.747638,1.9937 1.81772,2.05984 1.07008,0.0661418 1.99488,-0.747638 2.06103,-1.81772 0.0011811,-0.0413386 0.751182,-15.2823 13.2095,-18.9449 1.02874,-0.302362 1.61693,-1.38189 1.31575,-2.41063 -0.302362,-1.02874 -1.38189,-1.61693 -2.41063,-1.31457 -15.1193,4.44567 -15.991,22.3784 -15.9933,22.428z"/>
     <path id="_316791320" class="fil4" d="M860.188 1699.14c-0.0661418,1.0689 0.748819,1.9937 1.8189,2.05984 1.0689,0.0661418 1.9937,-0.747638 2.05984,-1.81772 0.0011811,-0.0413386 0.751182,-15.2835 13.2095,-18.9449 1.02874,-0.302362 1.61811,-1.38189 1.31575,-2.41063 -0.302362,-1.02874 -1.38071,-1.61693 -2.40945,-1.31457 -15.1205,4.44567 -15.991,22.3784 -15.9945,22.428z"/>
     <path id="_316791488" class="fil4" d="M873.342 1715.04c-0.0661418,1.07008 0.748819,1.9937 1.8189,2.05984 1.07008,0.0661418 1.9937,-0.747638 2.05984,-1.81772 0.0011811,-0.0413386 0.751182,-15.2823 13.2106,-18.9449 1.02756,-0.302362 1.61693,-1.38189 1.31457,-2.41063 -0.302362,-1.02874 -1.38071,-1.61693 -2.40945,-1.31457 -15.1205,4.44567 -15.991,22.3784 -15.9945,22.428z"/>
     <path id="_316791560" class="fil4" d="M902.392 1699.14c-0.0661418,1.0689 0.747638,1.9937 1.81772,2.05984 1.07008,0.0661418 1.99488,-0.747638 2.05984,-1.81772 0.00236221,-0.0413386 0.751182,-15.2835 13.2106,-18.9449 1.02874,-0.302362 1.61693,-1.38189 1.31457,-2.41063 -0.301181,-1.02874 -1.38071,-1.61693 -2.40945,-1.31457 -15.1205,4.44567 -15.991,22.3784 -15.9933,22.428z"/>
     <path id="_316791368" class="fil4" d="M915.546 1715.04c-0.0661418,1.07008 0.747638,1.9937 1.81772,2.05984 1.07008,0.0661418 1.99488,-0.747638 2.06103,-1.81772 0.0011811,-0.0413386 0.751182,-15.2823 13.2095,-18.9449 1.02874,-0.302362 1.61693,-1.38189 1.31575,-2.41063 -0.302362,-1.02874 -1.38189,-1.61693 -2.41063,-1.31457 -15.1193,4.44567 -15.991,22.3784 -15.9933,22.428z"/>
     <path id="_316791752" class="fil4" d="M944.878 1699.14c-0.0661418,1.0689 0.747638,1.9937 1.81772,2.05984 1.07008,0.0661418 1.99488,-0.747638 2.06103,-1.81772 0.0011811,-0.0413386 0.751182,-15.2835 13.2095,-18.9449 1.02874,-0.302362 1.61693,-1.38189 1.31575,-2.41063 -0.302362,-1.02874 -1.38189,-1.61693 -2.41063,-1.31457 -15.1193,4.44567 -15.991,22.3784 -15.9933,22.428z"/>
     <path id="_316823480" class="fil4" d="M958.032 1715.04c-0.0661418,1.07008 0.747638,1.9937 1.81772,2.05984 1.07008,0.0661418 1.99488,-0.747638 2.06103,-1.81772 0.0011811,-0.0413386 0.751182,-15.2823 13.2095,-18.9449 1.02874,-0.302362 1.61693,-1.38189 1.31575,-2.41063 -0.302362,-1.02874 -1.38189,-1.61693 -2.41063,-1.31457 -15.1193,4.44567 -15.991,22.3784 -15.9933,22.428z"/>
     <path id="_316823576" class="fil4" d="M987.081 1699.14c-0.0661418,1.0689 0.748819,1.9937 1.8189,2.05984 1.0689,0.0661418 1.9937,-0.747638 2.05984,-1.81772 0.0011811,-0.0413386 0.751182,-15.2835 13.2095,-18.9449 1.02874,-0.302362 1.61811,-1.38189 1.31575,-2.41063 -0.302362,-1.02874 -1.38071,-1.61693 -2.40945,-1.31457 -15.1205,4.44567 -15.991,22.3784 -15.9945,22.428z"/>
     <path id="_316823552" class="fil4" d="M1000.24 1715.04c-0.0661418,1.07008 0.748819,1.9937 1.8189,2.05984 1.07008,0.0661418 1.9937,-0.747638 2.05984,-1.81772 0.0011811,-0.0413386 0.751182,-15.2823 13.2106,-18.9449 1.02756,-0.302362 1.61693,-1.38189 1.31457,-2.41063 -0.302362,-1.02874 -1.38071,-1.61693 -2.40945,-1.31457 -15.1205,4.44567 -15.991,22.3784 -15.9945,22.428z"/>
     <path id="_316823384" class="fil4" d="M1029.29 1699.14c-0.0661418,1.0689 0.747638,1.9937 1.81772,2.05984 1.07008,0.0661418 1.99488,-0.747638 2.05984,-1.81772 0.00236221,-0.0413386 0.751182,-15.2835 13.2106,-18.9449 1.02874,-0.302362 1.61693,-1.38189 1.31457,-2.41063 -0.301181,-1.02874 -1.38071,-1.61693 -2.40945,-1.31457 -15.1205,4.44567 -15.991,22.3784 -15.9933,22.428z"/>
     <path id="_316823312" class="fil4" d="M1042.44 1715.04c-0.0661418,1.07008 0.747638,1.9937 1.81772,2.05984 1.07008,0.0661418 1.99488,-0.747638 2.06103,-1.81772 0.0011811,-0.0413386 0.751182,-15.2823 13.2095,-18.9449 1.02874,-0.302362 1.61693,-1.38189 1.31575,-2.41063 -0.302362,-1.02874 -1.38189,-1.61693 -2.41063,-1.31457 -15.1193,4.44567 -15.991,22.3784 -15.9933,22.428z"/>
     <path id="_316822760" class="fil4" d="M1071.49 1699.14c-0.0661418,1.0689 0.747638,1.9937 1.81772,2.05984 1.07008,0.0661418 1.99488,-0.747638 2.06103,-1.81772 0.0011811,-0.0413386 0.751182,-15.2835 13.2095,-18.9449 1.02874,-0.302362 1.61811,-1.38189 1.31575,-2.41063 -0.302362,-1.02874 -1.38189,-1.61693 -2.40945,-1.31457 -15.1205,4.44567 -15.991,22.3784 -15.9945,22.428z"/>
     <path id="_316822640" class="fil4" d="M1084.64 1715.04c-0.0661418,1.07008 0.748819,1.9937 1.8189,2.05984 1.07008,0.0661418 1.9937,-0.747638 2.05984,-1.81772 0.0011811,-0.0413386 0.751182,-15.2823 13.2095,-18.9449 1.02874,-0.302362 1.61811,-1.38189 1.31575,-2.41063 -0.302362,-1.02874 -1.38071,-1.61693 -2.40945,-1.31457 -15.1205,4.44567 -15.991,22.3784 -15.9945,22.428z"/>
     <path id="_316822568" class="fil4" d="M1112.6 1699.14c-0.0661418,1.0689 0.747638,1.9937 1.81772,2.05984 1.07008,0.0661418 1.99488,-0.747638 2.06103,-1.81772 0.0011811,-0.0413386 0.751182,-15.2835 13.2095,-18.9449 1.02874,-0.302362 1.61693,-1.38189 1.31575,-2.41063 -0.302362,-1.02874 -1.38189,-1.61693 -2.41063,-1.31457 -15.1193,4.44567 -15.991,22.3784 -15.9933,22.428z"/>
     <path id="_316823240" class="fil4" d="M1125.75 1715.04c-0.0661418,1.07008 0.747638,1.9937 1.81772,2.05984 1.07008,0.0661418 1.99488,-0.747638 2.06103,-1.81772 0.0011811,-0.0413386 0.751182,-15.2823 13.2095,-18.9449 1.02874,-0.302362 1.61693,-1.38189 1.31575,-2.41063 -0.302362,-1.02874 -1.38189,-1.61693 -2.41063,-1.31457 -15.1193,4.44567 -15.9898,22.3784 -15.9933,22.428z"/>
     <path id="_316823168" class="fil4" d="M1154.8 1699.14c-0.0661418,1.0689 0.748819,1.9937 1.8189,2.05984 1.07008,0.0661418 1.9937,-0.747638 2.05984,-1.81772 0.0011811,-0.0413386 0.751182,-15.2835 13.2095,-18.9449 1.02874,-0.302362 1.61811,-1.38189 1.31575,-2.41063 -0.302362,-1.02874 -1.38071,-1.61693 -2.40945,-1.31457 -15.1205,4.44567 -15.991,22.3784 -15.9945,22.428z"/>
     <path id="_316822688" class="fil4" d="M1167.96 1715.04c-0.0649607,1.07008 0.748819,1.9937 1.8189,2.05984 1.07008,0.0661418 1.9937,-0.747638 2.05984,-1.81772 0.0011811,-0.0413386 0.751182,-15.2823 13.2106,-18.9449 1.02756,-0.302362 1.61693,-1.38189 1.31457,-2.41063 -0.302362,-1.02874 -1.38071,-1.61693 -2.40945,-1.31457 -15.1205,4.44567 -15.991,22.3784 -15.9945,22.428z"/>
     <path id="_316822808" class="fil4" d="M1197.01 1699.14c-0.0661418,1.0689 0.747638,1.9937 1.81772,2.05984 1.07008,0.0661418 1.99488,-0.747638 2.05984,-1.81772 0.00236221,-0.0413386 0.751182,-15.2835 13.2106,-18.9449 1.02874,-0.302362 1.61693,-1.38189 1.31457,-2.41063 -0.301181,-1.02874 -1.38071,-1.61693 -2.40945,-1.31457 -15.1205,4.44567 -15.991,22.3784 -15.9933,22.428z"/>
     <path id="_316822712" class="fil4" d="M1210.16 1715.04c-0.0661418,1.07008 0.747638,1.9937 1.81772,2.05984 1.07008,0.0661418 1.99488,-0.747638 2.06103,-1.81772 0.0011811,-0.0413386 0.751182,-15.2823 13.2095,-18.9449 1.02874,-0.302362 1.61693,-1.38189 1.31575,-2.41063 -0.302362,-1.02874 -1.38189,-1.61693 -2.41063,-1.31457 -15.1193,4.44567 -15.991,22.3784 -15.9933,22.428z"/>
     <path id="_316823072" class="fil4" d="M1239.21 1699.14c-0.0661418,1.0689 0.748819,1.9937 1.81772,2.05984 1.07008,0.0661418 1.99488,-0.747638 2.06103,-1.81772 0.0011811,-0.0413386 0.751182,-15.2835 13.2095,-18.9449 1.02874,-0.302362 1.61811,-1.38189 1.31575,-2.41063 -0.302362,-1.02874 -1.38189,-1.61693 -2.40945,-1.31457 -15.1205,4.44567 -15.991,22.3784 -15.9945,22.428z"/>
     <path id="_316823048" class="fil4" d="M1252.36 1715.04c-0.0661418,1.07008 0.748819,1.9937 1.8189,2.05984 1.07008,0.0661418 1.9937,-0.747638 2.05984,-1.81772 0.0011811,-0.0413386 0.751182,-15.2823 13.2095,-18.9449 1.02874,-0.302362 1.61811,-1.38189 1.31575,-2.41063 -0.302362,-1.02874 -1.38071,-1.61693 -2.40945,-1.31457 -15.1205,4.44567 -15.991,22.3784 -15.9945,22.428z"/>
     <path id="_316822160" class="fil4" d="M1281.7 1699.14c-0.0661418,1.0689 0.748819,1.9937 1.8189,2.05984 1.07008,0.0661418 1.9937,-0.747638 2.05984,-1.81772 0.0011811,-0.0413386 0.751182,-15.2835 13.2095,-18.9449 1.02874,-0.302362 1.61811,-1.38189 1.31575,-2.41063 -0.302362,-1.02874 -1.38071,-1.61693 -2.40945,-1.31457 -15.1205,4.44567 -15.991,22.3784 -15.9945,22.428z"/>
     <path id="_316822040" class="fil4" d="M1294.85 1715.04c-0.0649607,1.07008 0.748819,1.9937 1.8189,2.05984 1.07008,0.0661418 1.9937,-0.747638 2.05984,-1.81772 0.0011811,-0.0413386 0.751182,-15.2823 13.2106,-18.9449 1.02756,-0.302362 1.61693,-1.38189 1.31457,-2.41063 -0.301181,-1.02874 -1.38071,-1.61693 -2.40945,-1.31457 -15.1205,4.44567 -15.991,22.3784 -15.9945,22.428z"/>
     <path id="_316822064" class="fil4" d="M1323.9 1699.14c-0.0661418,1.0689 0.747638,1.9937 1.81772,2.05984 1.07008,0.0661418 1.99488,-0.747638 2.05984,-1.81772 0.00236221,-0.0413386 0.751182,-15.2835 13.2106,-18.9449 1.02874,-0.302362 1.61693,-1.38189 1.31457,-2.41063 -0.301181,-1.02874 -1.38071,-1.61693 -2.40945,-1.31457 -15.1205,4.44567 -15.991,22.3784 -15.9933,22.428z"/>
     <path id="_316822304" class="fil4" d="M1337.05 1715.04c-0.0661418,1.07008 0.747638,1.9937 1.81772,2.05984 1.07008,0.0661418 1.99488,-0.747638 2.06103,-1.81772 0.0011811,-0.0413386 0.751182,-15.2823 13.2095,-18.9449 1.02874,-0.302362 1.61693,-1.38189 1.31575,-2.41063 -0.302362,-1.02874 -1.38189,-1.61693 -2.41063,-1.31457 -15.1193,4.44567 -15.991,22.3784 -15.9933,22.428z"/>
     <path id="_316821992" class="fil4" d="M1366.1 1699.14c-0.0661418,1.0689 0.748819,1.9937 1.81772,2.05984 1.07008,0.0661418 1.99488,-0.747638 2.06103,-1.81772 0.0011811,-0.0413386 0.751182,-15.2835 13.2095,-18.9449 1.02874,-0.302362 1.61811,-1.38189 1.31575,-2.41063 -0.302362,-1.02874 -1.38189,-1.61693 -2.40945,-1.31457 -15.1205,4.44567 -15.991,22.3784 -15.9945,22.428z"/>
     <path id="_316821944" class="fil4" d="M1379.26 1715.04c-0.0661418,1.07008 0.748819,1.9937 1.8189,2.05984 1.07008,0.0661418 1.9937,-0.747638 2.05984,-1.81772 0.0011811,-0.0413386 0.751182,-15.2823 13.2095,-18.9449 1.02874,-0.302362 1.61811,-1.38189 1.31575,-2.41063 -0.302362,-1.02874 -1.38071,-1.61693 -2.40945,-1.31457 -15.1205,4.44567 -15.991,22.3784 -15.9945,22.428z"/>
     <path id="_316821872" class="fil4" d="M1408.31 1699.14c-0.0661418,1.0689 0.747638,1.9937 1.81772,2.05984 1.07008,0.0661418 1.99488,-0.747638 2.05984,-1.81772 0.00236221,-0.0413386 0.751182,-15.2835 13.2106,-18.9449 1.02874,-0.302362 1.61693,-1.38189 1.31457,-2.41063 -0.301181,-1.02874 -1.38071,-1.61693 -2.40945,-1.31457 -15.1205,4.44567 -15.991,22.3784 -15.9933,22.428z"/>
     <path id="_316822208" class="fil4" d="M1421.46 1715.04c-0.0661418,1.07008 0.747638,1.9937 1.81772,2.05984 1.07008,0.0661418 1.99488,-0.747638 2.06103,-1.81772 0.0011811,-0.0413386 0.750001,-15.2823 13.2095,-18.9449 1.02874,-0.302362 1.61693,-1.38189 1.31575,-2.41063 -0.302362,-1.02874 -1.38189,-1.61693 -2.41063,-1.31457 -15.1193,4.44567 -15.991,22.3784 -15.9933,22.428z"/>
     <path id="_316822448" class="fil4" d="M1449.42 1699.14c-0.0661418,1.0689 0.748819,1.9937 1.8189,2.05984 1.07008,0.0661418 1.9937,-0.747638 2.05984,-1.81772 0.0011811,-0.0413386 0.751182,-15.2835 13.2095,-18.9449 1.02874,-0.302362 1.61811,-1.38189 1.31575,-2.41063 -0.302362,-1.02874 -1.38071,-1.61693 -2.40945,-1.31457 -15.1205,4.44567 -15.991,22.3784 -15.9945,22.428z"/>
     <path id="_316822400" class="fil4" d="M1462.57 1715.04c-0.0649607,1.07008 0.748819,1.9937 1.8189,2.05984 1.07008,0.0661418 1.9937,-0.747638 2.05984,-1.81772 0.00236221,-0.0413386 0.751182,-15.2823 13.2106,-18.9449 1.02874,-0.302362 1.61693,-1.38189 1.31457,-2.41063 -0.301181,-1.02874 -1.38071,-1.61693 -2.40945,-1.31457 -15.1205,4.44567 -15.991,22.3784 -15.9945,22.428z"/>
     <path id="_316821080" class="fil4" d="M1491.62 1699.14c-0.0661418,1.0689 0.747638,1.9937 1.81772,2.05984 1.07008,0.0661418 1.99488,-0.747638 2.06103,-1.81772 0.0011811,-0.0413386 0.751182,-15.2835 13.2095,-18.9449 1.02874,-0.302362 1.61693,-1.38189 1.31575,-2.41063 -0.302362,-1.02874 -1.38189,-1.61693 -2.41063,-1.31457 -15.1193,4.44567 -15.991,22.3784 -15.9933,22.428z"/>
     <path id="_316821680" class="fil4" d="M1504.78 1715.04c-0.0661418,1.07008 0.747638,1.9937 1.81772,2.05984 1.07008,0.0661418 1.99488,-0.747638 2.06103,-1.81772 0.0011811,-0.0413386 0.751182,-15.2823 13.2095,-18.9449 1.02874,-0.302362 1.61693,-1.38189 1.31575,-2.41063 -0.302362,-1.02874 -1.38189,-1.61693 -2.41063,-1.31457 -15.1193,4.44567 -15.991,22.3784 -15.9933,22.428z"/>
     <path id="_316821464" class="fil4" d="M1533.82 1699.14c-0.0661418,1.0689 0.748819,1.9937 1.8189,2.05984 1.0689,0.0661418 1.9937,-0.747638 2.05984,-1.81772 0.0011811,-0.0413386 0.751182,-15.2835 13.2095,-18.9449 1.02874,-0.302362 1.61811,-1.38189 1.31575,-2.41063 -0.302362,-1.02874 -1.38071,-1.61693 -2.40945,-1.31457 -15.1205,4.44567 -15.991,22.3784 -15.9945,22.428z"/>
     <path id="_316821608" class="fil4" d="M1546.98 1715.04c-0.0661418,1.07008 0.748819,1.9937 1.8189,2.05984 1.07008,0.0661418 1.9937,-0.747638 2.05984,-1.81772 0.0011811,-0.0413386 0.751182,-15.2823 13.2106,-18.9449 1.02756,-0.302362 1.61693,-1.38189 1.31457,-2.41063 -0.302362,-1.02874 -1.38071,-1.61693 -2.40945,-1.31457 -15.1205,4.44567 -15.991,22.3784 -15.9945,22.428z"/>
     <path id="_316821416" class="fil4" d="M1576.03 1699.14c-0.0661418,1.0689 0.747638,1.9937 1.81772,2.05984 1.07008,0.0661418 1.99488,-0.747638 2.05984,-1.81772 0.00236221,-0.0413386 0.751182,-15.2835 13.2106,-18.9449 1.02874,-0.302362 1.61693,-1.38189 1.31457,-2.41063 -0.301181,-1.02874 -1.38071,-1.61693 -2.40945,-1.31457 -15.1205,4.44567 -15.991,22.3784 -15.9933,22.428z"/>
     <path id="_316821560" class="fil4" d="M1589.18 1715.04c-0.0661418,1.07008 0.747638,1.9937 1.81772,2.05984 1.07008,0.0661418 1.99488,-0.747638 2.06103,-1.81772 0.0011811,-0.0413386 0.751182,-15.2823 13.2095,-18.9449 1.02874,-0.302362 1.61693,-1.38189 1.31575,-2.41063 -0.302362,-1.02874 -1.38189,-1.61693 -2.41063,-1.31457 -15.1193,4.44567 -15.991,22.3784 -15.9933,22.428z"/>
     <path id="_316821704" class="fil4" d="M1618.51 1699.14c-0.0661418,1.0689 0.747638,1.9937 1.81772,2.05984 1.07008,0.0661418 1.99488,-0.747638 2.06103,-1.81772 0.0011811,-0.0413386 0.751182,-15.2835 13.2095,-18.9449 1.02874,-0.302362 1.61693,-1.38189 1.31575,-2.41063 -0.302362,-1.02874 -1.38189,-1.61693 -2.41063,-1.31457 -15.1193,4.44567 -15.991,22.3784 -15.9933,22.428z"/>
     <path id="_316821584" class="fil4" d="M1631.67 1715.04c-0.0661418,1.07008 0.747638,1.9937 1.81772,2.05984 1.07008,0.0661418 1.99488,-0.747638 2.06103,-1.81772 0.0011811,-0.0413386 0.751182,-15.2823 13.2095,-18.9449 1.02874,-0.302362 1.61693,-1.38189 1.31575,-2.41063 -0.302362,-1.02874 -1.38189,-1.61693 -2.41063,-1.31457 -15.1193,4.44567 -15.991,22.3784 -15.9933,22.428z"/>
     <path id="_316821056" class="fil4" d="M1660.72 1699.14c-0.0661418,1.0689 0.748819,1.9937 1.8189,2.05984 1.0689,0.0661418 1.9937,-0.747638 2.05984,-1.81772 0.0011811,-0.0413386 0.751182,-15.2835 13.2095,-18.9449 1.02874,-0.302362 1.61811,-1.38189 1.31575,-2.41063 -0.302362,-1.02874 -1.38071,-1.61693 -2.40945,-1.31457 -15.1205,4.44567 -15.991,22.3784 -15.9945,22.428z"/>
     <path id="_316821344" class="fil4" d="M1673.87 1715.04c-0.0661418,1.07008 0.748819,1.9937 1.8189,2.05984 1.07008,0.0661418 1.9937,-0.747638 2.05984,-1.81772 0.0011811,-0.0413386 0.751182,-15.2823 13.2106,-18.9449 1.02756,-0.302362 1.61693,-1.38189 1.31457,-2.41063 -0.302362,-1.02874 -1.38071,-1.61693 -2.40945,-1.31457 -15.1205,4.44567 -15.991,22.3784 -15.9945,22.428z"/>
     <path id="_316821632" class="fil4" d="M1702.92 1699.14c-0.0661418,1.0689 0.747638,1.9937 1.81772,2.05984 1.07008,0.0661418 1.99488,-0.747638 2.05984,-1.81772 0.00236221,-0.0413386 0.751182,-15.2835 13.2106,-18.9449 1.02874,-0.302362 1.61693,-1.38189 1.31457,-2.41063 -0.301181,-1.02874 -1.38071,-1.61693 -2.40945,-1.31457 -15.1205,4.44567 -15.991,22.3784 -15.9933,22.428z"/>
     <path id="_316820696" class="fil4" d="M1716.08 1715.04c-0.0661418,1.07008 0.747638,1.9937 1.81772,2.05984 1.07008,0.0661418 1.99488,-0.747638 2.06103,-1.81772 0.0011811,-0.0413386 0.751182,-15.2823 13.2095,-18.9449 1.02874,-0.302362 1.61693,-1.38189 1.31575,-2.41063 -0.302362,-1.02874 -1.38189,-1.61693 -2.41063,-1.31457 -15.1193,4.44567 -15.991,22.3784 -15.9933,22.428z"/>
     <path id="_316820480" class="fil4" d="M1745.12 1699.14c-0.0661418,1.0689 0.747638,1.9937 1.81772,2.05984 1.07008,0.0661418 1.99488,-0.747638 2.06103,-1.81772 0.0011811,-0.0413386 0.751182,-15.2835 13.2095,-18.9449 1.02874,-0.302362 1.61811,-1.38189 1.31575,-2.41063 -0.302362,-1.02874 -1.38189,-1.61693 -2.40945,-1.31457 -15.1205,4.44567 -15.991,22.3784 -15.9945,22.428z"/>
     <path id="_316820408" class="fil4" d="M1758.28 1715.04c-0.0661418,1.07008 0.748819,1.9937 1.8189,2.05984 1.07008,0.0661418 1.9937,-0.747638 2.05984,-1.81772 0.0011811,-0.0413386 0.751182,-15.2823 13.2095,-18.9449 1.02874,-0.302362 1.61811,-1.38189 1.31575,-2.41063 -0.302362,-1.02874 -1.38071,-1.61693 -2.40945,-1.31457 -15.1205,4.44567 -15.991,22.3784 -15.9945,22.428z"/>
    </g>
    <g>
     <path id="_316820384" class="fil4" d="M271.242 1750.93c-0.0661418,1.07008 0.747638,1.99488 1.81772,2.06103 1.07008,0.0661418 1.99488,-0.748819 2.06103,-1.8189 0.0011811,-0.0413386 0.750001,-15.2823 13.2095,-18.9449 1.02874,-0.301181 1.61693,-1.38071 1.31575,-2.40945 -0.302362,-1.02874 -1.38189,-1.61693 -2.41063,-1.31575 -15.1193,4.44567 -15.991,22.3795 -15.9933,22.428z"/>
     <path id="_316820864" class="fil4" d="M284.395 1766.82c-0.0661418,1.07008 0.747638,1.99488 1.81772,2.06103 1.07008,0.0661418 1.99488,-0.747638 2.06103,-1.81772 0.0011811,-0.0425197 0.751182,-15.2835 13.2095,-18.9449 1.02874,-0.302362 1.61693,-1.38189 1.31575,-2.41063 -0.302362,-1.02874 -1.38189,-1.61693 -2.41063,-1.31457 -15.1193,4.44567 -15.991,22.3784 -15.9933,22.4268z"/>
     <path id="_316820264" class="fil4" d="M313.445 1750.93c-0.0661418,1.07008 0.748819,1.99488 1.8189,2.06103 1.0689,0.0661418 1.9937,-0.748819 2.05984,-1.8189 0.0011811,-0.0413386 0.751182,-15.2823 13.2095,-18.9449 1.02874,-0.301181 1.61811,-1.38071 1.31575,-2.40945 -0.302362,-1.02874 -1.38071,-1.61693 -2.40945,-1.31575 -15.1205,4.44567 -15.991,22.3795 -15.9945,22.428z"/>
     <path id="_316820984" class="fil4" d="M326.599 1766.82c-0.0661418,1.07008 0.748819,1.99488 1.8189,2.06103 1.07008,0.0661418 1.9937,-0.747638 2.05984,-1.81772 0.0011811,-0.0425197 0.751182,-15.2835 13.2095,-18.9449 1.02874,-0.302362 1.61811,-1.38189 1.31575,-2.41063 -0.302362,-1.02874 -1.38071,-1.61693 -2.40945,-1.31457 -15.1205,4.44567 -15.991,22.3784 -15.9945,22.4268z"/>
     <path id="_316820768" class="fil4" d="M355.649 1750.93c-0.0661418,1.07008 0.747638,1.99488 1.81772,2.06103 1.07008,0.0661418 1.99488,-0.748819 2.05984,-1.8189 0.00236221,-0.0413386 0.751182,-15.2823 13.2106,-18.9449 1.02874,-0.301181 1.61693,-1.38071 1.31457,-2.40945 -0.301181,-1.02874 -1.38071,-1.61693 -2.40945,-1.31575 -15.1205,4.44567 -15.991,22.3795 -15.9933,22.428z"/>
     <path id="_316820504" class="fil4" d="M368.803 1766.82c-0.0661418,1.07008 0.747638,1.99488 1.81772,2.06103 1.07008,0.0661418 1.99488,-0.747638 2.06103,-1.81772 0.0011811,-0.0425197 0.751182,-15.2835 13.2095,-18.9449 1.02874,-0.302362 1.61693,-1.38189 1.31575,-2.41063 -0.302362,-1.02874 -1.38189,-1.61693 -2.41063,-1.31457 -15.1193,4.44567 -15.991,22.3784 -15.9933,22.4268z"/>
     <path id="_316820528" class="fil4" d="M397.852 1750.93c-0.0661418,1.07008 0.747638,1.99488 1.81772,2.06103 1.07008,0.0661418 1.99488,-0.748819 2.06103,-1.8189 0.0011811,-0.0413386 0.751182,-15.2823 13.2095,-18.9449 1.02874,-0.301181 1.61811,-1.38071 1.31575,-2.40945 -0.302362,-1.02874 -1.38189,-1.61693 -2.40945,-1.31575 -15.1205,4.44567 -15.991,22.3795 -15.9945,22.428z"/>
     <path id="_316820240" class="fil4" d="M411.006 1766.82c-0.0661418,1.07008 0.748819,1.99488 1.8189,2.06103 1.07008,0.0661418 1.9937,-0.747638 2.05984,-1.81772 0.0011811,-0.0425197 0.751182,-15.2835 13.2095,-18.9449 1.02874,-0.302362 1.61811,-1.38189 1.31575,-2.41063 -0.302362,-1.02874 -1.38071,-1.61693 -2.40945,-1.31457 -15.1205,4.44567 -15.991,22.3784 -15.9945,22.4268z"/>
     <path id="_316819880" class="fil4" d="M438.963 1750.93c-0.0661418,1.07008 0.747638,1.99488 1.81772,2.06103 1.07008,0.0661418 1.99488,-0.748819 2.06103,-1.8189 0.0011811,-0.0413386 0.751182,-15.2823 13.2095,-18.9449 1.02874,-0.301181 1.61693,-1.38071 1.31575,-2.40945 -0.302362,-1.02874 -1.38189,-1.61693 -2.41063,-1.31575 -15.1193,4.44567 -15.991,22.3795 -15.9933,22.428z"/>
     <path id="_316820168" class="fil4" d="M452.117 1766.82c-0.0661418,1.07008 0.747638,1.99488 1.81772,2.06103 1.07008,0.0661418 1.99488,-0.747638 2.06103,-1.81772 0.0011811,-0.0425197 0.751182,-15.2835 13.2095,-18.9449 1.02874,-0.302362 1.61693,-1.38189 1.31575,-2.41063 -0.302362,-1.02874 -1.38189,-1.61693 -2.41063,-1.31457 -15.1193,4.44567 -15.991,22.3784 -15.9933,22.4268z"/>
     <path id="_316819904" class="fil4" d="M481.166 1750.93c-0.0661418,1.07008 0.748819,1.99488 1.8189,2.06103 1.07008,0.0661418 1.9937,-0.748819 2.05984,-1.8189 0.0011811,-0.0413386 0.751182,-15.2823 13.2095,-18.9449 1.02874,-0.301181 1.61811,-1.38071 1.31575,-2.40945 -0.302362,-1.02874 -1.38071,-1.61693 -2.40945,-1.31575 -15.1205,4.44567 -15.991,22.3795 -15.9945,22.428z"/>
     <path id="_316819568" class="fil4" d="M494.32 1766.82c-0.0649607,1.07008 0.748819,1.99488 1.8189,2.06103 1.07008,0.0661418 1.9937,-0.747638 2.05984,-1.81772 0.0011811,-0.0425197 0.751182,-15.2835 13.2106,-18.9449 1.02756,-0.302362 1.61693,-1.38189 1.31457,-2.41063 -0.302362,-1.02874 -1.38071,-1.61693 -2.40945,-1.31457 -15.1205,4.44567 -15.991,22.3784 -15.9945,22.4268z"/>
     <path id="_316819784" class="fil4" d="M523.37 1750.93c-0.0661418,1.07008 0.747638,1.99488 1.81772,2.06103 1.07008,0.0661418 1.99488,-0.748819 2.05984,-1.8189 0.00236221,-0.0413386 0.751182,-15.2823 13.2106,-18.9449 1.02874,-0.301181 1.61693,-1.38071 1.31457,-2.40945 -0.301181,-1.02874 -1.38071,-1.61693 -2.40945,-1.31575 -15.1205,4.44567 -15.991,22.3795 -15.9933,22.428z"/>
     <path id="_316819520" class="fil4" d="M536.524 1766.82c-0.0661418,1.07008 0.747638,1.99488 1.81772,2.06103 1.07008,0.0661418 1.99488,-0.747638 2.06103,-1.81772 0.0011811,-0.0425197 0.751182,-15.2835 13.2095,-18.9449 1.02874,-0.302362 1.61693,-1.38189 1.31575,-2.41063 -0.302362,-1.02874 -1.38189,-1.61693 -2.41063,-1.31457 -15.1193,4.44567 -15.991,22.3784 -15.9933,22.4268z"/>
     <path id="_316819496" class="fil4" d="M565.574 1750.93c-0.0661418,1.07008 0.747638,1.99488 1.81772,2.06103 1.07008,0.0661418 1.99488,-0.748819 2.06103,-1.8189 0.0011811,-0.0413386 0.751182,-15.2823 13.2095,-18.9449 1.02874,-0.301181 1.61811,-1.38071 1.31575,-2.40945 -0.302362,-1.02874 -1.38189,-1.61693 -2.40945,-1.31575 -15.1205,4.44567 -15.991,22.3795 -15.9945,22.428z"/>
     <path id="_316819760" class="fil4" d="M578.728 1766.82c-0.0661418,1.07008 0.748819,1.99488 1.8189,2.06103 1.07008,0.0661418 1.9937,-0.747638 2.05984,-1.81772 0.0011811,-0.0425197 0.751182,-15.2835 13.2095,-18.9449 1.02874,-0.302362 1.61811,-1.38189 1.31575,-2.41063 -0.302362,-1.02874 -1.38071,-1.61693 -2.40945,-1.31457 -15.1205,4.44567 -15.991,22.3784 -15.9945,22.4268z"/>
     <path id="_316819976" class="fil4" d="M608.059 1750.93c-0.0661418,1.07008 0.748819,1.99488 1.8189,2.06103 1.07008,0.0661418 1.9937,-0.748819 2.05984,-1.8189 0.0011811,-0.0413386 0.751182,-15.2823 13.2095,-18.9449 1.02874,-0.301181 1.61811,-1.38071 1.31575,-2.40945 -0.302362,-1.02874 -1.38071,-1.61693 -2.40945,-1.31575 -15.1205,4.44567 -15.991,22.3795 -15.9945,22.428z"/>
     <path id="_316819256" class="fil4" d="M621.213 1766.82c-0.0649607,1.07008 0.748819,1.99488 1.8189,2.06103 1.07008,0.0661418 1.9937,-0.747638 2.05984,-1.81772 0.0011811,-0.0425197 0.751182,-15.2835 13.2106,-18.9449 1.02756,-0.302362 1.61693,-1.38189 1.31457,-2.41063 -0.302362,-1.02874 -1.38071,-1.61693 -2.40945,-1.31457 -15.1205,4.44567 -15.991,22.3784 -15.9945,22.4268z"/>
     <path id="_316819088" class="fil4" d="M650.263 1750.93c-0.0661418,1.07008 0.747638,1.99488 1.81772,2.06103 1.07008,0.0661418 1.99488,-0.748819 2.05984,-1.8189 0.00236221,-0.0413386 0.751182,-15.2823 13.2106,-18.9449 1.02874,-0.301181 1.61693,-1.38071 1.31457,-2.40945 -0.301181,-1.02874 -1.38071,-1.61693 -2.40945,-1.31575 -15.1205,4.44567 -15.991,22.3795 -15.9933,22.428z"/>
     <path id="_316818968" class="fil4" d="M663.417 1766.82c-0.0661418,1.07008 0.747638,1.99488 1.81772,2.06103 1.07008,0.0661418 1.99488,-0.747638 2.06103,-1.81772 0.0011811,-0.0425197 0.751182,-15.2835 13.2095,-18.9449 1.02874,-0.302362 1.61693,-1.38189 1.31575,-2.41063 -0.302362,-1.02874 -1.38189,-1.61693 -2.41063,-1.31457 -15.1193,4.44567 -15.991,22.3784 -15.9933,22.4268z"/>
     <path id="_316819376" class="fil4" d="M692.467 1750.93c-0.0661418,1.07008 0.747638,1.99488 1.81772,2.06103 1.07008,0.0661418 1.99488,-0.748819 2.06103,-1.8189 0.0011811,-0.0413386 0.751182,-15.2823 13.2095,-18.9449 1.02874,-0.301181 1.61811,-1.38071 1.31575,-2.40945 -0.302362,-1.02874 -1.38189,-1.61693 -2.40945,-1.31575 -15.1205,4.44567 -15.991,22.3795 -15.9945,22.428z"/>
     <path id="_316818920" class="fil4" d="M705.621 1766.82c-0.0661418,1.07008 0.748819,1.99488 1.8189,2.06103 1.07008,0.0661418 1.9937,-0.747638 2.05984,-1.81772 0.0011811,-0.0425197 0.751182,-15.2835 13.2095,-18.9449 1.02874,-0.302362 1.61811,-1.38189 1.31575,-2.41063 -0.302362,-1.02874 -1.38071,-1.61693 -2.40945,-1.31457 -15.1205,4.44567 -15.991,22.3784 -15.9945,22.4268z"/>
     <path id="_316819184" class="fil4" d="M734.671 1750.93c-0.0661418,1.07008 0.747638,1.99488 1.81772,2.06103 1.07008,0.0661418 1.99488,-0.748819 2.05984,-1.8189 0.00236221,-0.0413386 0.751182,-15.2823 13.2106,-18.9449 1.02874,-0.301181 1.61693,-1.38071 1.31457,-2.40945 -0.301181,-1.02874 -1.38071,-1.61693 -2.40945,-1.31575 -15.1205,4.44567 -15.991,22.3795 -15.9933,22.428z"/>
     <path id="_316819040" class="fil4" d="M747.825 1766.82c-0.0661418,1.07008 0.747638,1.99488 1.81772,2.06103 1.07008,0.0661418 1.99488,-0.747638 2.05984,-1.81772 0.00236221,-0.0425197 0.751182,-15.2835 13.2106,-18.9449 1.02874,-0.302362 1.61693,-1.38189 1.31575,-2.41063 -0.302362,-1.02874 -1.38189,-1.61693 -2.41063,-1.31457 -15.1193,4.44567 -15.991,22.3784 -15.9933,22.4268z"/>
     <path id="_316819016" class="fil4" d="M775.781 1750.93c-0.0661418,1.07008 0.748819,1.99488 1.8189,2.06103 1.07008,0.0661418 1.9937,-0.748819 2.05984,-1.8189 0.0011811,-0.0413386 0.751182,-15.2823 13.2095,-18.9449 1.02874,-0.301181 1.61811,-1.38071 1.31575,-2.40945 -0.302362,-1.02874 -1.38071,-1.61693 -2.40945,-1.31575 -15.1205,4.44567 -15.991,22.3795 -15.9945,22.428z"/>
     <path id="_316819112" class="fil4" d="M788.934 1766.82c-0.0649607,1.07008 0.748819,1.99488 1.8189,2.06103 1.07008,0.0661418 1.9937,-0.747638 2.05984,-1.81772 0.00236221,-0.0425197 0.751182,-15.2835 13.2106,-18.9449 1.02874,-0.302362 1.61693,-1.38189 1.31457,-2.41063 -0.301181,-1.02874 -1.38071,-1.61693 -2.40945,-1.31457 -15.1205,4.44567 -15.991,22.3784 -15.9945,22.4268z"/>
     <path id="_316819352" class="fil4" d="M817.985 1750.93c-0.0661418,1.07008 0.747638,1.99488 1.81772,2.06103 1.07008,0.0661418 1.99488,-0.748819 2.06103,-1.8189 0.0011811,-0.0413386 0.750001,-15.2823 13.2095,-18.9449 1.02874,-0.301181 1.61693,-1.38071 1.31575,-2.40945 -0.302362,-1.02874 -1.38189,-1.61693 -2.41063,-1.31575 -15.1193,4.44567 -15.991,22.3795 -15.9933,22.428z"/>
     <path id="_316819448" class="fil4" d="M831.139 1766.82c-0.0661418,1.07008 0.747638,1.99488 1.81772,2.06103 1.07008,0.0661418 1.99488,-0.747638 2.06103,-1.81772 0.0011811,-0.0425197 0.751182,-15.2835 13.2095,-18.9449 1.02874,-0.302362 1.61693,-1.38189 1.31575,-2.41063 -0.302362,-1.02874 -1.38189,-1.61693 -2.41063,-1.31457 -15.1193,4.44567 -15.991,22.3784 -15.9933,22.4268z"/>
     <path id="_316818224" class="fil4" d="M860.188 1750.93c-0.0661418,1.07008 0.748819,1.99488 1.8189,2.06103 1.0689,0.0661418 1.9937,-0.748819 2.05984,-1.8189 0.0011811,-0.0413386 0.751182,-15.2823 13.2095,-18.9449 1.02874,-0.301181 1.61811,-1.38071 1.31575,-2.40945 -0.302362,-1.02874 -1.38071,-1.61693 -2.40945,-1.31575 -15.1205,4.44567 -15.991,22.3795 -15.9945,22.428z"/>
     <path id="_316818008" class="fil4" d="M873.342 1766.82c-0.0661418,1.07008 0.748819,1.99488 1.8189,2.06103 1.07008,0.0661418 1.9937,-0.747638 2.05984,-1.81772 0.0011811,-0.0425197 0.751182,-15.2835 13.2106,-18.9449 1.02756,-0.302362 1.61693,-1.38189 1.31457,-2.41063 -0.302362,-1.02874 -1.38071,-1.61693 -2.40945,-1.31457 -15.1205,4.44567 -15.991,22.3784 -15.9945,22.4268z"/>
     <path id="_316818104" class="fil4" d="M902.392 1750.93c-0.0661418,1.07008 0.747638,1.99488 1.81772,2.06103 1.07008,0.0661418 1.99488,-0.748819 2.05984,-1.8189 0.00236221,-0.0413386 0.751182,-15.2823 13.2106,-18.9449 1.02874,-0.301181 1.61693,-1.38071 1.31457,-2.40945 -0.301181,-1.02874 -1.38071,-1.61693 -2.40945,-1.31575 -15.1205,4.44567 -15.991,22.3795 -15.9933,22.428z"/>
     <path id="_316818080" class="fil4" d="M915.546 1766.82c-0.0661418,1.07008 0.747638,1.99488 1.81772,2.06103 1.07008,0.0661418 1.99488,-0.747638 2.06103,-1.81772 0.0011811,-0.0425197 0.751182,-15.2835 13.2095,-18.9449 1.02874,-0.302362 1.61693,-1.38189 1.31575,-2.41063 -0.302362,-1.02874 -1.38189,-1.61693 -2.41063,-1.31457 -15.1193,4.44567 -15.991,22.3784 -15.9933,22.4268z"/>
     <path id="_316818536" class="fil4" d="M944.878 1750.93c-0.0661418,1.07008 0.747638,1.99488 1.81772,2.06103 1.07008,0.0661418 1.99488,-0.748819 2.06103,-1.8189 0.0011811,-0.0413386 0.751182,-15.2823 13.2095,-18.9449 1.02874,-0.301181 1.61693,-1.38071 1.31575,-2.40945 -0.302362,-1.02874 -1.38189,-1.61693 -2.41063,-1.31575 -15.1193,4.44567 -15.991,22.3795 -15.9933,22.428z"/>
     <path id="_316818152" class="fil4" d="M958.032 1766.82c-0.0661418,1.07008 0.747638,1.99488 1.81772,2.06103 1.07008,0.0661418 1.99488,-0.747638 2.06103,-1.81772 0.0011811,-0.0425197 0.751182,-15.2835 13.2095,-18.9449 1.02874,-0.302362 1.61693,-1.38189 1.31575,-2.41063 -0.302362,-1.02874 -1.38189,-1.61693 -2.41063,-1.31457 -15.1193,4.44567 -15.991,22.3784 -15.9933,22.4268z"/>
     <path id="_316818128" class="fil4" d="M987.081 1750.93c-0.0661418,1.07008 0.748819,1.99488 1.8189,2.06103 1.0689,0.0661418 1.9937,-0.748819 2.05984,-1.8189 0.0011811,-0.0413386 0.751182,-15.2823 13.2095,-18.9449 1.02874,-0.301181 1.61811,-1.38071 1.31575,-2.40945 -0.302362,-1.02874 -1.38071,-1.61693 -2.40945,-1.31575 -15.1205,4.44567 -15.991,22.3795 -15.9945,22.428z"/>
     <path id="_316817984" class="fil4" d="M1000.24 1766.82c-0.0661418,1.07008 0.748819,1.99488 1.8189,2.06103 1.07008,0.0661418 1.9937,-0.747638 2.05984,-1.81772 0.0011811,-0.0425197 0.751182,-15.2835 13.2106,-18.9449 1.02756,-0.302362 1.61693,-1.38189 1.31457,-2.41063 -0.302362,-1.02874 -1.38071,-1.61693 -2.40945,-1.31457 -15.1205,4.44567 -15.991,22.3784 -15.9945,22.4268z"/>
     <path id="_316818488" class="fil4" d="M1029.29 1750.93c-0.0661418,1.07008 0.747638,1.99488 1.81772,2.06103 1.07008,0.0661418 1.99488,-0.748819 2.05984,-1.8189 0.00236221,-0.0413386 0.751182,-15.2823 13.2106,-18.9449 1.02874,-0.301181 1.61693,-1.38071 1.31457,-2.40945 -0.301181,-1.02874 -1.38071,-1.61693 -2.40945,-1.31575 -15.1205,4.44567 -15.991,22.3795 -15.9933,22.428z"/>
     <path id="_316818440" class="fil4" d="M1042.44 1766.82c-0.0661418,1.07008 0.747638,1.99488 1.81772,2.06103 1.07008,0.0661418 1.99488,-0.747638 2.06103,-1.81772 0.0011811,-0.0425197 0.751182,-15.2835 13.2095,-18.9449 1.02874,-0.302362 1.61693,-1.38189 1.31575,-2.41063 -0.302362,-1.02874 -1.38189,-1.61693 -2.41063,-1.31457 -15.1193,4.44567 -15.991,22.3784 -15.9933,22.4268z"/>
     <path id="_316817192" class="fil4" d="M1071.49 1750.93c-0.0661418,1.07008 0.747638,1.99488 1.81772,2.06103 1.07008,0.0661418 1.99488,-0.748819 2.06103,-1.8189 0.0011811,-0.0413386 0.751182,-15.2823 13.2095,-18.9449 1.02874,-0.301181 1.61811,-1.38071 1.31575,-2.40945 -0.302362,-1.02874 -1.38189,-1.61693 -2.40945,-1.31575 -15.1205,4.44567 -15.991,22.3795 -15.9945,22.428z"/>
     <path id="_316817648" class="fil4" d="M1084.64 1766.82c-0.0661418,1.07008 0.748819,1.99488 1.8189,2.06103 1.07008,0.0661418 1.9937,-0.747638 2.05984,-1.81772 0.0011811,-0.0425197 0.751182,-15.2835 13.2095,-18.9449 1.02874,-0.302362 1.61811,-1.38189 1.31575,-2.41063 -0.302362,-1.02874 -1.38071,-1.61693 -2.40945,-1.31457 -15.1205,4.44567 -15.991,22.3784 -15.9945,22.4268z"/>
     <path id="_316817288" class="fil4" d="M1112.6 1750.93c-0.0661418,1.07008 0.747638,1.99488 1.81772,2.06103 1.07008,0.0661418 1.99488,-0.748819 2.06103,-1.8189 0.0011811,-0.0413386 0.751182,-15.2823 13.2095,-18.9449 1.02874,-0.301181 1.61693,-1.38071 1.31575,-2.40945 -0.302362,-1.02874 -1.38189,-1.61693 -2.41063,-1.31575 -15.1193,4.44567 -15.991,22.3795 -15.9933,22.428z"/>
     <path id="_316817264" class="fil4" d="M1125.75 1766.82c-0.0661418,1.07008 0.747638,1.99488 1.81772,2.06103 1.07008,0.0661418 1.99488,-0.747638 2.06103,-1.81772 0.0011811,-0.0425197 0.751182,-15.2835 13.2095,-18.9449 1.02874,-0.302362 1.61693,-1.38189 1.31575,-2.41063 -0.302362,-1.02874 -1.38189,-1.61693 -2.41063,-1.31457 -15.1193,4.44567 -15.9898,22.3784 -15.9933,22.4268z"/>
     <path id="_316817576" class="fil4" d="M1154.8 1750.93c-0.0661418,1.07008 0.748819,1.99488 1.8189,2.06103 1.07008,0.0661418 1.9937,-0.748819 2.05984,-1.8189 0.0011811,-0.0413386 0.751182,-15.2823 13.2095,-18.9449 1.02874,-0.301181 1.61811,-1.38071 1.31575,-2.40945 -0.302362,-1.02874 -1.38071,-1.61693 -2.40945,-1.31575 -15.1205,4.44567 -15.991,22.3795 -15.9945,22.428z"/>
     <path id="_316817408" class="fil4" d="M1167.96 1766.82c-0.0649607,1.07008 0.748819,1.99488 1.8189,2.06103 1.07008,0.0661418 1.9937,-0.747638 2.05984,-1.81772 0.0011811,-0.0425197 0.751182,-15.2835 13.2106,-18.9449 1.02756,-0.302362 1.61693,-1.38189 1.31457,-2.41063 -0.302362,-1.02874 -1.38071,-1.61693 -2.40945,-1.31457 -15.1205,4.44567 -15.991,22.3784 -15.9945,22.4268z"/>
     <path id="_316817912" class="fil4" d="M1197.01 1750.93c-0.0661418,1.07008 0.747638,1.99488 1.81772,2.06103 1.07008,0.0661418 1.99488,-0.748819 2.05984,-1.8189 0.00236221,-0.0413386 0.751182,-15.2823 13.2106,-18.9449 1.02874,-0.301181 1.61693,-1.38071 1.31457,-2.40945 -0.301181,-1.02874 -1.38071,-1.61693 -2.40945,-1.31575 -15.1205,4.44567 -15.991,22.3795 -15.9933,22.428z"/>
     <path id="_316817312" class="fil4" d="M1210.16 1766.82c-0.0661418,1.07008 0.747638,1.99488 1.81772,2.06103 1.07008,0.0661418 1.99488,-0.747638 2.06103,-1.81772 0.0011811,-0.0425197 0.751182,-15.2835 13.2095,-18.9449 1.02874,-0.302362 1.61693,-1.38189 1.31575,-2.41063 -0.302362,-1.02874 -1.38189,-1.61693 -2.41063,-1.31457 -15.1193,4.44567 -15.991,22.3784 -15.9933,22.4268z"/>
     <path id="_316817384" class="fil4" d="M1239.21 1750.93c-0.0661418,1.07008 0.748819,1.99488 1.81772,2.06103 1.07008,0.0661418 1.99488,-0.748819 2.06103,-1.8189 0.0011811,-0.0413386 0.751182,-15.2823 13.2095,-18.9449 1.02874,-0.301181 1.61811,-1.38071 1.31575,-2.40945 -0.302362,-1.02874 -1.38189,-1.61693 -2.40945,-1.31575 -15.1205,4.44567 -15.991,22.3795 -15.9945,22.428z"/>
     <path id="_316817480" class="fil4" d="M1252.36 1766.82c-0.0661418,1.07008 0.748819,1.99488 1.8189,2.06103 1.07008,0.0661418 1.9937,-0.747638 2.05984,-1.81772 0.0011811,-0.0425197 0.751182,-15.2835 13.2095,-18.9449 1.02874,-0.302362 1.61811,-1.38189 1.31575,-2.41063 -0.302362,-1.02874 -1.38071,-1.61693 -2.40945,-1.31457 -15.1205,4.44567 -15.991,22.3784 -15.9945,22.4268z"/>
     <path id="_316817456" class="fil4" d="M1281.7 1750.93c-0.0661418,1.07008 0.748819,1.99488 1.8189,2.06103 1.07008,0.0661418 1.9937,-0.748819 2.05984,-1.8189 0.0011811,-0.0413386 0.751182,-15.2823 13.2095,-18.9449 1.02874,-0.301181 1.61811,-1.38071 1.31575,-2.40945 -0.302362,-1.02874 -1.38071,-1.61693 -2.40945,-1.31575 -15.1205,4.44567 -15.991,22.3795 -15.9945,22.428z"/>
     <path id="_316816616" class="fil4" d="M1294.85 1766.82c-0.0649607,1.07008 0.748819,1.99488 1.8189,2.06103 1.07008,0.0661418 1.9937,-0.747638 2.05984,-1.81772 0.0011811,-0.0425197 0.751182,-15.2835 13.2106,-18.9449 1.02756,-0.302362 1.61693,-1.38189 1.31457,-2.41063 -0.301181,-1.02874 -1.38071,-1.61693 -2.40945,-1.31457 -15.1205,4.44567 -15.991,22.3784 -15.9945,22.4268z"/>
     <path id="_316816568" class="fil4" d="M1323.9 1750.93c-0.0661418,1.07008 0.747638,1.99488 1.81772,2.06103 1.07008,0.0661418 1.99488,-0.748819 2.05984,-1.8189 0.00236221,-0.0413386 0.751182,-15.2823 13.2106,-18.9449 1.02874,-0.301181 1.61693,-1.38071 1.31457,-2.40945 -0.301181,-1.02874 -1.38071,-1.61693 -2.40945,-1.31575 -15.1205,4.44567 -15.991,22.3795 -15.9933,22.428z"/>
     <path id="_316817048" class="fil4" d="M1337.05 1766.82c-0.0661418,1.07008 0.747638,1.99488 1.81772,2.06103 1.07008,0.0661418 1.99488,-0.747638 2.06103,-1.81772 0.0011811,-0.0425197 0.751182,-15.2835 13.2095,-18.9449 1.02874,-0.302362 1.61693,-1.38189 1.31575,-2.41063 -0.302362,-1.02874 -1.38189,-1.61693 -2.41063,-1.31457 -15.1193,4.44567 -15.991,22.3784 -15.9933,22.4268z"/>
     <path id="_316817000" class="fil4" d="M1366.1 1750.93c-0.0661418,1.07008 0.748819,1.99488 1.81772,2.06103 1.07008,0.0661418 1.99488,-0.748819 2.06103,-1.8189 0.0011811,-0.0413386 0.751182,-15.2823 13.2095,-18.9449 1.02874,-0.301181 1.61811,-1.38071 1.31575,-2.40945 -0.302362,-1.02874 -1.38189,-1.61693 -2.40945,-1.31575 -15.1205,4.44567 -15.991,22.3795 -15.9945,22.428z"/>
     <path id="_316816496" class="fil4" d="M1379.26 1766.82c-0.0661418,1.07008 0.748819,1.99488 1.8189,2.06103 1.07008,0.0661418 1.9937,-0.747638 2.05984,-1.81772 0.0011811,-0.0425197 0.751182,-15.2835 13.2095,-18.9449 1.02874,-0.302362 1.61811,-1.38189 1.31575,-2.41063 -0.302362,-1.02874 -1.38071,-1.61693 -2.40945,-1.31457 -15.1205,4.44567 -15.991,22.3784 -15.9945,22.4268z"/>
     <path id="_316816928" class="fil4" d="M1408.31 1750.93c-0.0661418,1.07008 0.747638,1.99488 1.81772,2.06103 1.07008,0.0661418 1.99488,-0.748819 2.05984,-1.8189 0.00236221,-0.0413386 0.751182,-15.2823 13.2106,-18.9449 1.02874,-0.301181 1.61693,-1.38071 1.31457,-2.40945 -0.301181,-1.02874 -1.38071,-1.61693 -2.40945,-1.31575 -15.1205,4.44567 -15.991,22.3795 -15.9933,22.428z"/>
     <path id="_316816880" class="fil4" d="M1421.46 1766.82c-0.0661418,1.07008 0.747638,1.99488 1.81772,2.06103 1.07008,0.0661418 1.99488,-0.747638 2.06103,-1.81772 0.0011811,-0.0425197 0.750001,-15.2835 13.2095,-18.9449 1.02874,-0.302362 1.61693,-1.38189 1.31575,-2.41063 -0.302362,-1.02874 -1.38189,-1.61693 -2.41063,-1.31457 -15.1193,4.44567 -15.991,22.3784 -15.9933,22.4268z"/>
     <path id="_316816856" class="fil4" d="M1449.42 1750.93c-0.0661418,1.07008 0.748819,1.99488 1.8189,2.06103 1.07008,0.0661418 1.9937,-0.748819 2.05984,-1.8189 0.0011811,-0.0413386 0.751182,-15.2823 13.2095,-18.9449 1.02874,-0.301181 1.61811,-1.38071 1.31575,-2.40945 -0.302362,-1.02874 -1.38071,-1.61693 -2.40945,-1.31575 -15.1205,4.44567 -15.991,22.3795 -15.9945,22.428z"/>
     <path id="_316816688" class="fil4" d="M1462.57 1766.82c-0.0649607,1.07008 0.748819,1.99488 1.8189,2.06103 1.07008,0.0661418 1.9937,-0.747638 2.05984,-1.81772 0.00236221,-0.0425197 0.751182,-15.2835 13.2106,-18.9449 1.02874,-0.302362 1.61693,-1.38189 1.31457,-2.41063 -0.301181,-1.02874 -1.38071,-1.61693 -2.40945,-1.31457 -15.1205,4.44567 -15.991,22.3784 -15.9945,22.4268z"/>
     <path id="_316816712" class="fil4" d="M1491.62 1750.93c-0.0661418,1.07008 0.747638,1.99488 1.81772,2.06103 1.07008,0.0661418 1.99488,-0.748819 2.06103,-1.8189 0.0011811,-0.0413386 0.751182,-15.2823 13.2095,-18.9449 1.02874,-0.301181 1.61693,-1.38071 1.31575,-2.40945 -0.302362,-1.02874 -1.38189,-1.61693 -2.41063,-1.31575 -15.1193,4.44567 -15.991,22.3795 -15.9933,22.428z"/>
     <path id="_316816304" class="fil4" d="M1504.78 1766.82c-0.0661418,1.07008 0.747638,1.99488 1.81772,2.06103 1.07008,0.0661418 1.99488,-0.747638 2.06103,-1.81772 0.0011811,-0.0425197 0.751182,-15.2835 13.2095,-18.9449 1.02874,-0.302362 1.61693,-1.38189 1.31575,-2.41063 -0.302362,-1.02874 -1.38189,-1.61693 -2.41063,-1.31457 -15.1193,4.44567 -15.991,22.3784 -15.9933,22.4268z"/>
     <path id="_316816112" class="fil4" d="M1533.82 1750.93c-0.0661418,1.07008 0.748819,1.99488 1.8189,2.06103 1.0689,0.0661418 1.9937,-0.748819 2.05984,-1.8189 0.0011811,-0.0413386 0.751182,-15.2823 13.2095,-18.9449 1.02874,-0.301181 1.61811,-1.38071 1.31575,-2.40945 -0.302362,-1.02874 -1.38071,-1.61693 -2.40945,-1.31575 -15.1205,4.44567 -15.991,22.3795 -15.9945,22.428z"/>
     <path id="_316815752" class="fil4" d="M1546.98 1766.82c-0.0661418,1.07008 0.748819,1.99488 1.8189,2.06103 1.07008,0.0661418 1.9937,-0.747638 2.05984,-1.81772 0.0011811,-0.0425197 0.751182,-15.2835 13.2106,-18.9449 1.02756,-0.302362 1.61693,-1.38189 1.31457,-2.41063 -0.302362,-1.02874 -1.38071,-1.61693 -2.40945,-1.31457 -15.1205,4.44567 -15.991,22.3784 -15.9945,22.4268z"/>
     <path id="_316816328" class="fil4" d="M1576.03 1750.93c-0.0661418,1.07008 0.747638,1.99488 1.81772,2.06103 1.07008,0.0661418 1.99488,-0.748819 2.05984,-1.8189 0.00236221,-0.0413386 0.751182,-15.2823 13.2106,-18.9449 1.02874,-0.301181 1.61693,-1.38071 1.31457,-2.40945 -0.301181,-1.02874 -1.38071,-1.61693 -2.40945,-1.31575 -15.1205,4.44567 -15.991,22.3795 -15.9933,22.428z"/>
     <path id="_316816160" class="fil4" d="M1589.18 1766.82c-0.0661418,1.07008 0.747638,1.99488 1.81772,2.06103 1.07008,0.0661418 1.99488,-0.747638 2.06103,-1.81772 0.0011811,-0.0425197 0.751182,-15.2835 13.2095,-18.9449 1.02874,-0.302362 1.61693,-1.38189 1.31575,-2.41063 -0.302362,-1.02874 -1.38189,-1.61693 -2.41063,-1.31457 -15.1193,4.44567 -15.991,22.3784 -15.9933,22.4268z"/>
     <path id="_316815920" class="fil4" d="M1618.51 1750.93c-0.0661418,1.07008 0.747638,1.99488 1.81772,2.06103 1.07008,0.0661418 1.99488,-0.748819 2.06103,-1.8189 0.0011811,-0.0413386 0.751182,-15.2823 13.2095,-18.9449 1.02874,-0.301181 1.61693,-1.38071 1.31575,-2.40945 -0.302362,-1.02874 -1.38189,-1.61693 -2.41063,-1.31575 -15.1193,4.44567 -15.991,22.3795 -15.9933,22.428z"/>
     <path id="_316815992" class="fil4" d="M1631.67 1766.82c-0.0661418,1.07008 0.747638,1.99488 1.81772,2.06103 1.07008,0.0661418 1.99488,-0.747638 2.06103,-1.81772 0.0011811,-0.0425197 0.751182,-15.2835 13.2095,-18.9449 1.02874,-0.302362 1.61693,-1.38189 1.31575,-2.41063 -0.302362,-1.02874 -1.38189,-1.61693 -2.41063,-1.31457 -15.1193,4.44567 -15.991,22.3784 -15.9933,22.4268z"/>
     <path id="_316815872" class="fil4" d="M1660.72 1750.93c-0.0661418,1.07008 0.748819,1.99488 1.8189,2.06103 1.0689,0.0661418 1.9937,-0.748819 2.05984,-1.8189 0.0011811,-0.0413386 0.751182,-15.2823 13.2095,-18.9449 1.02874,-0.301181 1.61811,-1.38071 1.31575,-2.40945 -0.302362,-1.02874 -1.38071,-1.61693 -2.40945,-1.31575 -15.1205,4.44567 -15.991,22.3795 -15.9945,22.428z"/>
     <path id="_316815704" class="fil4" d="M1673.87 1766.82c-0.0661418,1.07008 0.748819,1.99488 1.8189,2.06103 1.07008,0.0661418 1.9937,-0.747638 2.05984,-1.81772 0.0011811,-0.0425197 0.751182,-15.2835 13.2106,-18.9449 1.02756,-0.302362 1.61693,-1.38189 1.31457,-2.41063 -0.302362,-1.02874 -1.38071,-1.61693 -2.40945,-1.31457 -15.1205,4.44567 -15.991,22.3784 -15.9945,22.4268z"/>
     <path id="_316815944" class="fil4" d="M1702.92 1750.93c-0.0661418,1.07008 0.747638,1.99488 1.81772,2.06103 1.07008,0.0661418 1.99488,-0.748819 2.05984,-1.8189 0.00236221,-0.0413386 0.751182,-15.2823 13.2106,-18.9449 1.02874,-0.301181 1.61693,-1.38071 1.31457,-2.40945 -0.301181,-1.02874 -1.38071,-1.61693 -2.40945,-1.31575 -15.1205,4.44567 -15.991,22.3795 -15.9933,22.428z"/>
     <path id="_316816376" class="fil4" d="M1716.08 1766.82c-0.0661418,1.07008 0.747638,1.99488 1.81772,2.06103 1.07008,0.0661418 1.99488,-0.747638 2.06103,-1.81772 0.0011811,-0.0425197 0.751182,-15.2835 13.2095,-18.9449 1.02874,-0.302362 1.61693,-1.38189 1.31575,-2.41063 -0.302362,-1.02874 -1.38189,-1.61693 -2.41063,-1.31457 -15.1193,4.44567 -15.991,22.3784 -15.9933,22.4268z"/>
     <path id="_316815536" class="fil4" d="M1745.12 1750.93c-0.0661418,1.07008 0.747638,1.99488 1.81772,2.06103 1.07008,0.0661418 1.99488,-0.748819 2.06103,-1.8189 0.0011811,-0.0413386 0.751182,-15.2823 13.2095,-18.9449 1.02874,-0.301181 1.61811,-1.38071 1.31575,-2.40945 -0.302362,-1.02874 -1.38189,-1.61693 -2.40945,-1.31575 -15.1205,4.44567 -15.991,22.3795 -15.9945,22.428z"/>
     <path id="_316815440" class="fil4" d="M1758.28 1766.82c-0.0661418,1.07008 0.748819,1.99488 1.8189,2.06103 1.07008,0.0661418 1.9937,-0.747638 2.05984,-1.81772 0.0011811,-0.0425197 0.751182,-15.2835 13.2095,-18.9449 1.02874,-0.302362 1.61811,-1.38189 1.31575,-2.41063 -0.302362,-1.02874 -1.38071,-1.61693 -2.40945,-1.31457 -15.1205,4.44567 -15.991,22.3784 -15.9945,22.4268z"/>
    </g>
   </g>
   <rect id="_316815032" class="fil5" x="719.738" y="1114.02" width="163.402" height="551.135"/>
   <polygon id="_316814960" class="fil6" points="279.774,1219.89 1323.45,1219.89 1069.12,929.805 534.11,929.805 "/>
   <polygon id="_316815176" class="fil7" points="346.336,980.724 1256.89,980.724 1034.99,642.925 568.231,642.925 "/>
   <polygon id="_316814360" class="fil8" points="465.558,659.801 1137.67,659.801 801.612,255.999 "/>
  </g>
 </g>
 <rect class="fil9" width="2048" height="2048"/>
</svg>
